<?xml version="1.0" encoding="utf-8"?>
<!-- Generator: Adobe Illustrator 18.0.0, SVG Export Plug-In . SVG Version: 6.00 Build 0)  -->
<!DOCTYPE svg PUBLIC "-//W3C//DTD SVG 1.1//EN" "http://www.w3.org/Graphics/SVG/1.1/DTD/svg11.dtd">
<svg version="1.1" id="Layer_1" xmlns="http://www.w3.org/2000/svg" xmlns:xlink="http://www.w3.org/1999/xlink" x="0px" y="0px"
	 viewBox="0 0 103 90" enable-background="new 0 0 103 90" xml:space="preserve">
<g>
	<g>
		<path fill="#7E7E7E" d="M20.7,37.5h-6.6c-0.9,0-1.6,0.7-1.6,1.6v3.3c0,0.9,0.7,1.6,1.6,1.6c0.9,0,1.6-0.7,1.6-1.6v-1.6h3.3v8.2
			c0,0.9,0.7,1.6,1.6,1.6c0.9,0,1.6-0.7,1.6-1.6v-9.9C22.4,38.2,21.7,37.5,20.7,37.5z M10.9,47.4c-8.1,0-8.2,21.2-8.2,21.4
			c0,4,2.8,7.3,6.6,8.1v8.4c0,0.9,0.7,1.6,1.6,1.6c0.9,0,1.6-0.7,1.6-1.6v-8.4c3.8-0.8,6.6-4.1,6.6-8.1C19.1,68.6,19,47.4,10.9,47.4
			z M10.9,73.8c-2.7,0-4.9-2.2-4.9-4.9c0-8.2,2.2-18.1,4.9-18.1c2.7,0,4.9,9.9,4.9,18.1C15.8,71.6,13.6,73.8,10.9,73.8z M96.6,77.1
			c-0.3,0-0.6,0-0.8,0.1c-1.1-2-3.3-3.4-5.7-3.4c-2.4,0-4.6,1.3-5.7,3.4c-0.3,0-0.6-0.1-0.8-0.1c-2.7,0-4.9,2.2-4.9,4.9
			c0,2.7,2.2,4.9,4.9,4.9h13.2c2.7,0,4.9-2.2,4.9-4.9C101.5,79.3,99.3,77.1,96.6,77.1z M96.6,83.7H83.4c-0.9,0-1.6-0.7-1.6-1.6
			c0-0.9,0.7-1.6,1.6-1.6c0.3,0,0.6,0.1,0.9,0.3c0.4,0.3,1,0.3,1.5,0.1c0.5-0.2,0.9-0.6,1-1.2c0.3-1.5,1.7-2.6,3.2-2.6
			c1.5,0,2.9,1.1,3.2,2.6c0.1,0.5,0.5,1,1,1.2c0.5,0.2,1.1,0.1,1.5-0.1c1.1-0.7,2.5,0.2,2.5,1.4C98.2,83,97.5,83.7,96.6,83.7z
			 M20.7,17.7h-6.6c-0.9,0-1.6,0.7-1.6,1.6v9.9c0,0.9,0.7,1.6,1.6,1.6h6.6c0.9,0,1.6-0.7,1.6-1.6v-9.9
			C22.4,18.4,21.7,17.7,20.7,17.7z M19.1,27.6h-3.3V21h3.3V27.6z M73.5,11.1c-0.9,0-1.6,0.7-1.6,1.6v62.7c0,0.9,0.7,1.6,1.6,1.6
			c0.9,0,1.6-0.7,1.6-1.6V12.8C75.1,11.8,74.4,11.1,73.5,11.1z M91.6,39.2c0-0.9-0.7-1.6-1.6-1.6h-6.6c-0.9,0-1.6,0.7-1.6,1.6v9.9
			c0,0.9,0.7,1.6,1.6,1.6H90c0.9,0,1.6-0.7,1.6-1.6V39.2z M88.3,47.4H85v-6.6h3.3V47.4z M4.3,44.1c0.9,0,1.6-0.7,1.6-1.6V7.8h92.3
			v66c0,0.9,0.7,1.6,1.6,1.6c0.9,0,1.6-0.7,1.6-1.6V2.9c0-0.9-0.7-1.6-1.6-1.6c-0.9,0-1.6,0.7-1.6,1.6v1.6H5.9V2.9
			c0-0.9-0.7-1.6-1.6-1.6C3.4,1.2,2.6,2,2.6,2.9v39.6C2.6,43.4,3.4,44.1,4.3,44.1z M90,57.3h-6.6c-0.9,0-1.6,0.7-1.6,1.6v9.9
			c0,0.9,0.7,1.6,1.6,1.6H90c0.9,0,1.6-0.7,1.6-1.6V59C91.6,58,90.9,57.3,90,57.3z M88.3,67.2H85v-6.6h3.3V67.2z M91.6,19.4
			c0-0.9-0.7-1.6-1.6-1.6h-6.6c-0.9,0-1.6,0.7-1.6,1.6v9.9c0,0.9,0.7,1.6,1.6,1.6H90c0.9,0,1.6-0.7,1.6-1.6V19.4z M88.3,27.6H85V21
			h3.3V27.6z M57,30.9h6.6c0.9,0,1.6-0.7,1.6-1.6v-9.9c0-0.9-0.7-1.6-1.6-1.6H57c-0.9,0-1.6,0.7-1.6,1.6v9.9
			C55.4,30.2,56.1,30.9,57,30.9z M58.7,21h3.3v6.6h-3.3V21z M29,12.8v62.7c0,0.9,0.7,1.6,1.6,1.6c0.9,0,1.6-0.7,1.6-1.6V12.8
			c0-0.9-0.7-1.6-1.6-1.6C29.7,11.1,29,11.8,29,12.8z M73.5,80.4H27.3c-0.9,0-1.6,0.7-1.6,1.6v3.3c0,0.9,0.7,1.6,1.6,1.6
			c0.9,0,1.6-0.7,1.6-1.6v-1.6h44.5c0.9,0,1.6-0.7,1.6-1.6C75.1,81.1,74.4,80.4,73.5,80.4z M38.9,49.1L38.9,49.1
			c0,0.9,0.7,1.6,1.6,1.6h6.6c0.9,0,1.6-0.7,1.6-1.6v-9.9c0-0.9-0.7-1.6-1.6-1.6h-6.6c-0.9,0-1.6,0.7-1.6,1.6V49.1z M42.2,40.8h3.3
			v6.6h-3.3V40.8z M47.1,30.9c0.9,0,1.6-0.7,1.6-1.6v-9.9c0-0.9-0.7-1.6-1.6-1.6h-6.6c-0.9,0-1.6,0.7-1.6,1.6v9.9
			c0,0.9,0.7,1.6,1.6,1.6H47.1z M42.2,21h3.3v6.6h-3.3V21z M63.6,77.1c0.9,0,1.6-0.7,1.6-1.6V60.6h1.6c0.9,0,1.6-0.7,1.6-1.6
			c0-0.9-0.7-1.6-1.6-1.6H37.2c-0.9,0-1.6,0.7-1.6,1.6c0,0.9,0.7,1.6,1.6,1.6h1.6v14.8c0,0.9,0.7,1.6,1.6,1.6c0.9,0,1.6-0.7,1.6-1.6
			V60.6h8.2v6.6c-0.9,0-1.6,0.7-1.6,1.6c0,0.9,0.7,1.6,1.6,1.6v4.9c0,0.9,0.7,1.6,1.6,1.6c0.9,0,1.6-0.7,1.6-1.6v-4.9
			c0.9,0,1.6-0.7,1.6-1.6c0-0.9-0.7-1.6-1.6-1.6v-6.6h8.2v14.8C61.9,76.4,62.7,77.1,63.6,77.1z M55.4,49.1c0,0.9,0.7,1.6,1.6,1.6
			h6.6c0.9,0,1.6-0.7,1.6-1.6v-9.9c0-0.9-0.7-1.6-1.6-1.6H57c-0.9,0-1.6,0.7-1.6,1.6V49.1z M58.7,40.8h3.3v6.6h-3.3V40.8z"/>
	</g>
</g>
</svg>
