<?xml version="1.0" encoding="utf-8"?>
<!-- Generator: Adobe Illustrator 18.0.0, SVG Export Plug-In . SVG Version: 6.00 Build 0)  -->
<!DOCTYPE svg PUBLIC "-//W3C//DTD SVG 1.1//EN" "http://www.w3.org/Graphics/SVG/1.1/DTD/svg11.dtd">
<svg version="1.1" id="Layer_1" xmlns="http://www.w3.org/2000/svg" xmlns:xlink="http://www.w3.org/1999/xlink" x="0px" y="0px"
	 viewBox="0 0 103 90" enable-background="new 0 0 103 90" xml:space="preserve">
<g>
	<g>
		<path fill="#7E7E7E" d="M7.1,70.8h41.6c0.6,0,1.1-0.5,1.1-1.1v-7.5c0-0.6-0.5-1.1-1.1-1.1H7.1c-0.6,0-1.1,0.5-1.1,1.1v7.5
			C6,70.3,6.5,70.8,7.1,70.8z M8.2,63.3h39.4v5.3H8.2V63.3z M101.6,74.5l0-27.3c0-0.5,0.1-5.3-4-7.7V19.4c0-0.6-0.5-1.1-1.1-1.1
			c-4.9,0-9-3.3-9-7.3c0-1.4-1.2-3.5-11.2-5.2C69.7,4.6,60.8,4,51.3,4c0,0,0,0,0,0c0,0,0,0,0,0c-9.4,0-18.3,0.6-25,1.7
			c-10,1.7-11.2,3.8-11.2,5.2c0,4-4,7.3-9,7.3c-0.6,0-1.1,0.5-1.1,1.1v20.1c-4.1,2.4-4,7.2-4,7.7l0,27.3c0,0.4,0.2,0.7,0.5,0.9
			C1.2,76,1,76.6,1,77.3c0,1.6,1.2,2.8,2,3.4v2.8c0,0.6,0.5,1.1,1.1,1.1h5.2c0.6,0,1.1-0.5,1.1-1.1v-2.8c0.7-0.6,2-1.8,2-3.4
			c0-0.6-0.1-1.2-0.4-1.7h78.8c-0.3,0.5-0.4,1.1-0.4,1.7c0,1.6,1.2,2.8,2,3.4v2.8c0,0.6,0.5,1.1,1.1,1.1h5.2c0.6,0,1.1-0.5,1.1-1.1
			v-2.8c0.7-0.6,2-1.8,2-3.4c0-0.7-0.2-1.3-0.5-1.9C101.4,75.2,101.6,74.9,101.6,74.5z M7.2,20.4c5.6-0.5,10.1-4.5,10.1-9.5
			c0-0.1,0.8-1.7,9.9-3.2c6.5-1,15.1-1.6,24.1-1.6c0,0,0,0,0,0c0,0,0,0,0,0c9,0,17.6,0.6,24.1,1.6c9,1.4,9.8,3.1,9.9,3.2
			c0,0,0,0,0,0c0,4.9,4.4,9,10.1,9.5V39h-3.2V23.3c0-0.6-0.5-1.1-1.1-1.1c-4.1,0-8.9-3-8.9-6.9c0-2.2-3.1-3.8-9.4-5
			c-5.6-1.1-13.3-1.6-21.5-1.6c0,0,0,0,0,0c0,0,0,0,0,0c-8.3,0-15.9,0.6-21.5,1.6c-6.3,1.2-9.4,2.8-9.4,5c0,3.9-4.8,6.9-8.9,6.9
			c-0.6,0-1.1,0.5-1.1,1.1V39H7.2V20.4z M78.5,25H61.6c-4.4,0-7.8,2.1-7.8,4.9V39h-5.1v-9.2c0-2.7-3.4-4.9-7.8-4.9H24.1
			c-4.4,0-7.8,2.1-7.8,4.9V39h-3.8V24.4c4.9-0.5,10-4.2,10-9c0,0,0.4-1.5,7.6-2.8c5.5-1,13-1.6,21.1-1.6c0,0,0,0,0,0c0,0,0,0,0,0
			c8.1,0,15.6,0.6,21.1,1.6c7.2,1.4,7.6,2.8,7.6,2.8c0,4.8,5.1,8.5,10,9V39h-3.8v-9.2C86.2,27.1,82.8,25,78.5,25z M84,29.8V39h-28
			v-9.2c0-1.3,2.4-2.7,5.6-2.7h16.9C81.7,27.2,84,28.6,84,29.8z M46.6,29.8V39h-28v-9.2c0-1.3,2.4-2.7,5.6-2.7H41
			C44.2,27.2,46.6,28.6,46.6,29.8z M8.6,79.1c-0.3,0.2-0.5,0.6-0.5,0.9v2.2H5.2v-2.2c0-0.4-0.2-0.7-0.5-0.9
			c-0.5-0.3-1.5-1.2-1.5-1.9c0-0.9,0.8-1.7,1.7-1.7h3.5c0.9,0,1.7,0.8,1.7,1.7C10.1,78,9.1,78.8,8.6,79.1z M98,79.1
			c-0.3,0.2-0.5,0.6-0.5,0.9v2.2h-2.9v-2.2c0-0.4-0.2-0.7-0.5-0.9c-0.5-0.3-1.5-1.2-1.5-1.9c0-0.9,0.8-1.7,1.7-1.7h3.5
			c0.9,0,1.7,0.8,1.7,1.7C99.4,78,98.4,78.8,98,79.1z M99.4,73.4H3.2V58.5h96.2V73.4z M99.4,47.1C99.4,47.1,99.4,47.1,99.4,47.1
			l0,9.3H3.2v-9.2c0,0,0,0,0-0.1c0-0.2-0.1-4.1,3.1-5.9h90C99.6,43,99.4,46.9,99.4,47.1z M54,70.8h41.6c0.6,0,1.1-0.5,1.1-1.1v-7.5
			c0-0.6-0.5-1.1-1.1-1.1H54c-0.6,0-1.1,0.5-1.1,1.1v7.5C52.9,70.3,53.4,70.8,54,70.8z M55.1,63.3h39.4v5.3H55.1V63.3z"/>
	</g>
</g>
</svg>
