<?xml version="1.0" encoding="utf-8"?>
<!-- Generator: Adobe Illustrator 18.0.0, SVG Export Plug-In . SVG Version: 6.00 Build 0)  -->
<!DOCTYPE svg PUBLIC "-//W3C//DTD SVG 1.1//EN" "http://www.w3.org/Graphics/SVG/1.1/DTD/svg11.dtd">
<svg version="1.1" id="Layer_1" xmlns="http://www.w3.org/2000/svg" xmlns:xlink="http://www.w3.org/1999/xlink" x="0px" y="0px"
	 viewBox="0 0 40 40" enable-background="new 0 0 40 40" xml:space="preserve">
<path fill="#AAAAAA" d="M13.4,20.3c4.1,0,7.4-3.3,7.4-7.4c0-4.1-3.3-7.4-7.4-7.4C9.3,5.6,6,8.9,6,12.9C6,17,9.3,20.3,13.4,20.3
	L13.4,20.3z M13.4,7.1c3.2,0,5.9,2.6,5.9,5.9c0,3.2-2.6,5.9-5.9,5.9c-3.2,0-5.9-2.6-5.9-5.9C7.5,9.7,10.2,7.1,13.4,7.1L13.4,7.1z
	 M13.4,7.1"/>
<path fill="#AAAAAA" d="M13.4,16.3c1,0,1.9-0.4,2.6-1.2c0.3-0.3,0.2-0.8-0.1-1.1c-0.3-0.3-0.8-0.2-1.1,0.1c-0.4,0.4-0.9,0.7-1.4,0.7
	c-0.5,0-1.1-0.2-1.4-0.7c-0.3-0.3-0.7-0.3-1.1-0.1c-0.3,0.3-0.3,0.7-0.1,1.1C11.5,15.9,12.4,16.3,13.4,16.3L13.4,16.3z M13.4,16.3"
	/>
<path fill="#AAAAAA" d="M29.8,20.2c2.9,0,5.3-2.4,5.3-5.3c0-2.9-2.4-5.3-5.3-5.3c-2.9,0-5.3,2.4-5.3,5.3
	C24.5,17.8,26.9,20.2,29.8,20.2L29.8,20.2z M29.8,10.7c2.3,0,4.2,1.9,4.2,4.2c0,2.3-1.9,4.2-4.2,4.2c-2.3,0-4.2-1.9-4.2-4.2
	C25.6,12.6,27.5,10.7,29.8,10.7L29.8,10.7z M29.8,10.7"/>
<path fill="#AAAAAA" d="M24.6,33.8H7.4c-0.4,0-0.7,0.3-0.7,0.7c0,0.4,0.3,0.7,0.7,0.7h18c0.4,0,0.7-0.3,0.7-0.7
	c0-0.9-0.1-1.7-0.3-2.6h-1.5C24.5,32.6,24.6,33.2,24.6,33.8z"/>
<path fill="#AAAAAA" d="M21.7,24.9c-2.2-1.9-5.1-3.1-8.3-3.1c-7,0-12.7,5.7-12.7,12.7c0,0.4,0.3,0.7,0.7,0.7h3
	c0.4,0,0.7-0.3,0.7-0.7c0-0.4-0.3-0.7-0.7-0.7H2.2c0.4-5.9,5.3-10.5,11.2-10.5c2.8,0,5.3,1,7.3,2.7C21,25.6,21.3,25.2,21.7,24.9z"/>
<path fill="#AAAAAA" d="M22.5,25.6c-0.4,0.3-0.7,0.7-1,1.1c1.1,1.2,2,2.6,2.6,4.2h1.6C25,28.9,23.9,27.1,22.5,25.6z"/>
<path fill="#AAAAAA" d="M29.8,21.3c-2.5,0-4.7,1-6.4,2.6c0.3,0.2,0.5,0.5,0.8,0.7c1.5-1.4,3.4-2.3,5.6-2.3c4.3,0,7.8,3.3,8.1,7.6
	H27.3c0.1,0.4,0.2,0.7,0.3,1.1h10.8c0.3,0,0.5-0.2,0.5-0.5C39,25.4,34.8,21.3,29.8,21.3z"/>
<path fill="#AAAAAA" d="M24,30.9c0.1,0.4,0.2,0.7,0.3,1.1h1.5c-0.1-0.4-0.2-0.7-0.3-1.1H24z"/>
<path fill="#AAAAAA" d="M21.7,24.9c-0.4,0.3-0.7,0.7-1,1.1c0.3,0.2,0.5,0.5,0.8,0.7c0.3-0.4,0.6-0.8,1-1.1
	C22.2,25.3,22,25.1,21.7,24.9z"/>
<path fill="#AAAAAA" d="M29.8,17.3c0.7,0,1.4-0.3,1.8-0.8c0.2-0.2,0.2-0.6-0.1-0.8c-0.2-0.2-0.6-0.2-0.8,0.1c-0.3,0.3-0.6,0.5-1,0.5
	c-0.4,0-0.8-0.2-1-0.5c-0.2-0.2-0.5-0.2-0.8-0.1c-0.2,0.2-0.2,0.5-0.1,0.8C28.4,17,29.1,17.3,29.8,17.3L29.8,17.3z M29.8,17.3"/>
</svg>
