<?xml version="1.0" encoding="utf-8"?>
<!-- Generator: Adobe Illustrator 18.0.0, SVG Export Plug-In . SVG Version: 6.00 Build 0)  -->
<!DOCTYPE svg PUBLIC "-//W3C//DTD SVG 1.1//EN" "http://www.w3.org/Graphics/SVG/1.1/DTD/svg11.dtd">
<svg version="1.1" id="Layer_1" xmlns="http://www.w3.org/2000/svg" xmlns:xlink="http://www.w3.org/1999/xlink" x="0px" y="0px"
	 viewBox="0 0 40 40" enable-background="new 0 0 40 40" xml:space="preserve">
<g>
	<g>
		<path fill="#ACABAB" d="M26.5,23.3h5.3c0.4,0,0.7-0.3,0.7-0.7v-6c0-0.4-0.3-0.7-0.7-0.7h-5.3c-0.4,0-0.7,0.3-0.7,0.7v6
			C25.8,23,26.1,23.3,26.5,23.3z M27.2,17.3h4V22h-4V17.3z M40.2,13.4L19.5,0.1c-0.2-0.1-0.5-0.1-0.7,0c-0.2,0.1-0.3,0.3-0.3,0.6V4
			c0,0.2,0.1,0.4,0.3,0.6l1,0.7v11L0.9,24.1c-0.2,0.1-0.4,0.3-0.4,0.6v14.7c0,0.4,0.3,0.7,0.7,0.7h36.7c0.4,0,0.7-0.3,0.7-0.7V17.3
			l1,0.6c0.1,0.1,0.2,0.1,0.4,0.1c0.1,0,0.2,0,0.3-0.1c0.2-0.1,0.3-0.3,0.3-0.6V14C40.5,13.8,40.4,13.6,40.2,13.4z M16.5,38.7H5.2
			v-1.3h11.3V38.7z M16.5,36H5.2v-1.3h11.3V36z M16.5,33.3H5.2V32h11.3V33.3z M16.5,30.7H5.2v-1.3h11.3V30.7z M16.5,28H5.2v-1.3
			h11.3V28z M19.8,38.7h-2V26c0-0.4-0.3-0.7-0.7-0.7H4.5c-0.4,0-0.7,0.3-0.7,0.7v12.7h-2V25.1l18-7.4V38.7z M31.8,38.7h-5.3v-9.3
			h5.3V38.7z M37.2,38.7h-4v-10c0-0.4-0.3-0.7-0.7-0.7h-6.7c-0.4,0-0.7,0.3-0.7,0.7v10h-4V6.1l16,10.3V38.7z M39.2,16.1L19.8,3.6
			V1.9l19.3,12.5V16.1z"/>
	</g>
</g>
</svg>
