<?xml version="1.0" encoding="utf-8"?>
<!-- Generator: Adobe Illustrator 18.0.0, SVG Export Plug-In . SVG Version: 6.00 Build 0)  -->
<!DOCTYPE svg PUBLIC "-//W3C//DTD SVG 1.1//EN" "http://www.w3.org/Graphics/SVG/1.1/DTD/svg11.dtd">
<svg version="1.1" id="Layer_1" xmlns="http://www.w3.org/2000/svg" xmlns:xlink="http://www.w3.org/1999/xlink" x="0px" y="0px"
	 viewBox="0 0 22 22" enable-background="new 0 0 22 22" xml:space="preserve">
<g>
	<g>
		<path fill="#555554" d="M2,6.7C2.3,6.9,3,7.5,4.4,8.4c1.3,1,2.3,1.7,3,2.2c0.1,0.1,0.2,0.2,0.5,0.4c0.3,0.2,0.5,0.3,0.6,0.5
			c0.2,0.1,0.4,0.3,0.6,0.4c0.2,0.1,0.5,0.3,0.7,0.3c0.2,0.1,0.4,0.1,0.6,0.1h0c0.2,0,0.4,0,0.6-0.1c0.2-0.1,0.4-0.2,0.7-0.3
			c0.2-0.1,0.4-0.3,0.6-0.4c0.2-0.1,0.4-0.3,0.6-0.5c0.3-0.2,0.4-0.3,0.5-0.4c0.7-0.5,2.5-1.9,5.4-4c0.6-0.4,1-0.9,1.4-1.5
			c0.4-0.6,0.6-1.2,0.6-1.9c0-0.5-0.2-1-0.6-1.4c-0.4-0.4-0.8-0.6-1.3-0.6h-17C1.3,1.4,0.8,1.6,0.5,2C0.2,2.4,0,2.9,0,3.6
			c0,0.5,0.2,1.1,0.6,1.7C1.1,5.9,1.5,6.3,2,6.7z M19.6,9.7c-2.5,1.8-4.5,3.2-5.8,4.2c-0.4,0.3-0.8,0.6-1.1,0.8
			c-0.3,0.2-0.6,0.4-1.1,0.6c-0.5,0.2-0.9,0.3-1.3,0.3h0c-0.4,0-0.8-0.1-1.3-0.3C8.6,15.2,8.3,15,8,14.8c-0.3-0.2-0.6-0.5-1.1-0.8
			c-1-0.8-3-2.2-5.8-4.2C0.7,9.4,0.3,9.1,0,8.7v8c0,0.5,0.2,1,0.5,1.4c0.4,0.4,0.8,0.6,1.3,0.6h17c0.5,0,0.9-0.2,1.3-0.6
			c0.4-0.4,0.5-0.8,0.5-1.4v-8C20.4,9.1,20,9.4,19.6,9.7z"/>
	</g>
</g>
</svg>
