<?xml version="1.0" encoding="utf-8"?>
<!-- Generator: Adobe Illustrator 18.0.0, SVG Export Plug-In . SVG Version: 6.00 Build 0)  -->
<!DOCTYPE svg PUBLIC "-//W3C//DTD SVG 1.1//EN" "http://www.w3.org/Graphics/SVG/1.1/DTD/svg11.dtd">
<svg version="1.1" id="Layer_1" xmlns="http://www.w3.org/2000/svg" xmlns:xlink="http://www.w3.org/1999/xlink" x="0px" y="0px"
	 viewBox="0 0 22 22" enable-background="new 0 0 22 22" xml:space="preserve">
<path fill="#555554" d="M18.4,8.9c0-3.3-2.2-5.9-5.3-6.6V1.6c0-0.8-0.7-1.6-1.6-1.6c-0.8,0-1.6,0.7-1.6,1.6v0.7
	C6.8,3,4.6,5.7,4.6,8.9v5.8l-2.1,2.1v1.1h18v-1.1l-2.1-2.1V8.9z M11.5,21c0.1,0,0.3,0,0.4,0c0.7-0.1,1.3-0.6,1.5-1.3
	c0.1-0.2,0.2-0.5,0.2-0.8H9.4C9.4,20.1,10.3,21,11.5,21z"/>
</svg>
