<?xml version="1.0" encoding="utf-8"?>
<!-- Generator: Adobe Illustrator 18.0.0, SVG Export Plug-In . SVG Version: 6.00 Build 0)  -->
<!DOCTYPE svg PUBLIC "-//W3C//DTD SVG 1.1//EN" "http://www.w3.org/Graphics/SVG/1.1/DTD/svg11.dtd">
<svg version="1.1" id="Layer_1" xmlns="http://www.w3.org/2000/svg" xmlns:xlink="http://www.w3.org/1999/xlink" x="0px" y="0px"
	 viewBox="0 0 587 652" enable-background="new 0 0 587 652" xml:space="preserve">
<g>
	<path fill="#FFFFFF" d="M46.5,224.6C46.5,224.6,46.5,224.6,46.5,224.6C46.5,224.6,46.5,224.6,46.5,224.6
		C46.5,224.6,46.5,224.6,46.5,224.6z"/>
	<path fill="#FFFFFF" d="M38.1,208.6c0.3,0.3,0.6,0.5,0.9,0.7c0.1-1.5,0.4-3,0.8-4.4c0-0.1,0.1-0.2,0.3-0.4
		c-0.1-0.1-0.1-0.2-0.2-0.3c-0.4-0.6-0.7-1.3-1-2.1c-3.1-1.4-5.4-3.6-7.3-6.4c-1.6-2.3-5.7-7-8.9-5.2c3.9,3.2,6.4,7.7,9.6,11.4
		C34.1,204.2,36,206.6,38.1,208.6z"/>
	<path fill="#FFFFFF" d="M43.2,239.3C43.2,239.3,43.2,239.3,43.2,239.3c-0.4-2.3-0.9-4.6-1.4-6.8c-0.9,0-1.9-0.3-2.7-0.6
		c-2.3,5.4-4,11.1-6,16.6c-2.7,7.6-5.6,15.2-9.1,22.6c6.1,0,12.3-0.2,18.4-1C42.8,259.8,43.2,249.5,43.2,239.3z"/>
	<path fill="#FFFFFF" d="M41.7,222.9c-0.9-1.6-1.5-3.4-2-5.3c-2.3,1.8-3.3,4.8-2.2,7.8c1,2.8,4.1,6.4,7.4,4.5
		c0.7-0.4,1.6-0.7,2.4-0.3c0.7,0.4,0.3,1.2-0.2,1.6c-0.6,0.4-1.3,0.7-2,0.9c0.5,2.1,0.9,4.2,1.3,6.4c0.1,0.2,0.2,0.4,0.2,0.6
		c0,0.1,0,0.2,0,0.4c1.5,8,2.6,16,3.8,24c0.3-0.3,0.5-0.6,0.8-0.9c0.3-0.3,0.5-0.6,0.8-0.9c0.1-0.1,0.1-0.1,0.1-0.2
		c-0.2-0.8-0.3-1.6-0.5-2.4c-0.4-1.8-0.1-2,1-3.5c0.4-0.6,1-1.2,0.8-1.4c-0.6-0.7-1.1-1.4-1.7-2.1c-0.7-0.9,0.3-2.7,0.6-3.7
		c0.4-1.3-1.8-1.2-2-2.5c-0.7-4.6-1.3-9.2-2-13.8c-0.1-0.4,0.5-0.7,1.1-0.9c3.8-2.2,6.9-6.7,4.1-11c-2.2-3.5-6.5-5.4-10.6-4.3
		c0.5,2.2,1.2,4.3,2.2,6C45.3,222.5,42.2,223.7,41.7,222.9z M45.5,221.8c0.7-0.5,1.6-0.6,2.4-0.3c1.6,0.7,1.7,2.6,0.6,3.8
		c-0.6,0.8-1.7,1.2-2.7,1.3c-1.1,0.1-2.1-0.3-2.9-1.1c-0.6-0.6,0.4-1.3,0.9-1.5c0.6-0.3,1.5-0.4,2.1,0c0,0,0,0,0,0c0,0,0,0,0,0
		c0-0.1,0-0.2-0.1-0.2c0,0,0-0.1-0.1-0.1c0,0,0,0,0,0c-0.1-0.1-0.1-0.1-0.2-0.2c0,0,0,0,0,0c0,0,0,0,0,0c-0.1-0.1-0.2-0.1-0.3-0.1
		C44.4,222.9,45,222.1,45.5,221.8z"/>
	<path fill="#FFFFFF" d="M52.1,261.6C52.1,261.4,52.1,261.5,52.1,261.6L52.1,261.6z"/>
	<path fill="#FFFFFF" d="M176.3,185.3c7.1-2.1,14.6-4.6,22.2-6.3c-6.3-2.2-13.1-3.1-19.5-4.8c-5-1.3-11.1-3-14.7-7.1
		c-1.5,3.1-2.5,6.4-3.6,9.6c-1.2,3.6-2.7,7.6-2.9,11.5C163.9,188.3,170,187.1,176.3,185.3z"/>
	<path fill="#FFFFFF" d="M42.5,207.1c-0.1,1-0.2,2.1-0.2,3.1c1.1,0.1,2.3,0.1,3.3,0.3c0.9,0.1,1.7,0.3,2.5,0.5
		c-1.5-0.9-2.9-1.8-4.3-2.9C43.4,207.8,43,207.4,42.5,207.1z"/>
	<path fill="#FFFFFF" d="M216.8,101.5C216.8,101.5,216.8,101.5,216.8,101.5C216.8,101.5,216.8,101.5,216.8,101.5
		C216.8,101.5,216.8,101.5,216.8,101.5z"/>
	<path fill="#FFFFFF" d="M124.6,180.3c-0.6,4.5-2.4,9-3.8,13.3c-2.1,6.7-3.9,13.4-4.4,20.4c7.3-3.9,15.6-4.9,23.8-5.5
		c4.9-0.3,9.8-0.5,14.7-1.4c5.4-1,10-3.1,14.4-6.4c5.6-4.3,10.4-8.5,17.4-10.3c8.6-2.2,17.4-2,26.2-1.9c-0.3-1-0.4-2.1-0.3-3.3
		c0.1-1.1,3.4-1.5,3.4-0.9c-0.1,1.7,0.2,3.2,0.7,4.4c0.1,0.1,0.1,0.1,0.1,0.2c1.4,3.1,4.4,5.1,7.9,6.3c1.9-4.1,3.4-8.4,4.3-12.8
		c-0.1,0-0.1,0-0.2-0.1c-19.3-8.7-39.7,2.6-58.5,6.8c-8,1.8-16.2,2-24.1-0.4C138.8,186.4,131.9,183,124.6,180.3z"/>
	<path fill="#FFFFFF" d="M512.7,384.8c0.3,0.1,0.5,0.3,0.8,0.4c3.1,0.7,5.1-0.6,8.2-1.4c1.4-0.4,3,0.2,4.4,0.5
		c3.8,0.7,7.7,1.4,11.5,2.3c3.3,0.8,6,2.5,9.1,3.9c1.8,0.8,3.6,1.7,5.6,2.1c2.2,0.4,6,1.1,7.9-0.4c-4.1-1.5-8.1-3.2-12-5.2
		c0,0-0.1,0-0.1,0c-0.3-0.1-0.5-0.2-0.6-0.3c-0.6-0.3-1.2-0.6-1.8-0.9c-1.2-0.7-2.6-2-3.8-2.4c-1.3-0.5-2.7-1-4-1.5
		c-4-1.6-8-3.1-12.1-4.4c-2-0.6,0.7-2.5,2-2.1c4.1,1.2,8.1,2.8,12.1,4.4c1.3,0.5,2.6,1.1,4,1.5c1.2,0.4,2.3,1.5,3.4,2.1
		c0.9,0.5,1.8,1,2.7,1.5c0,0,0,0,0,0c3.2,0.9,8.7,2.5,12,0.7c-4-1.2-7.8-3-11.7-4.6c-2.3-1-4.7-1.7-6.9-2.7c-5-2.3-9.9-4.8-14.8-7.2
		c-3.1-1.5-6.3-3.7-9.8-3c-5.6,1.1-10.9,3.3-16.5,4.6c-5,1.1-10.6,2.1-15.7,2c-5.6-0.1-10.5-1.3-15.6-3.4c-12.4-5.3-24.1-12-36-18.1
		c-7.3-3.8-14.6-7.5-22-11c-3.9-1.8-7.9-3.6-11.9-5.3c-1.3-0.5-3.9-1.1-4.8-2c-0.2-0.2-0.4-0.5-0.6-0.7c-6.3,9.8-15.6,18-24.6,25.5
		c1.3,1.6,3,4.1,4.8,4.6c1.2,0.3,2.4,0.7,3.6,1c3.3,0.8,6.5,1.6,9.8,2.4c9,2.1,18,4.2,27.1,6.1c11.1,2.4,22.2,4.7,33.3,6.9
		c8.2,1.6,16.6,2.7,24.7,4.5c6.8,1.4,12.7,5.4,19.5,6.7c4.4,0.9,8.8,1.2,13.2,1.8c5.6,0.7,11.1,1.4,16.6,2.6
		c2.8,0.6,5.8,1.2,8.5,2.4c-1.1-3.5-6-5.3-9.1-6.4c-4.3-1.6-8.8-2.8-12.8-5C508.5,385.9,511.5,384.1,512.7,384.8z"/>
	<path fill="#FFFFFF" d="M281.5,629.4c-2.4-12.7-3.3-25.7-5-38.5c0-0.1,0-0.2,0-0.3c-0.6,0.1-1.2,0.2-1.8,0.2
		c-9.4,1.2-19.1,2-28.5,0.8c-8.1-1-15.5-3.7-22.9-7.3c-4.9-2.4-9.7-4.9-14.5-7.7c6.6,17.7,13.2,35.3,20,52.9c0.6,0,2.2,0,2.2,0h50.4
		C281.5,629.5,281.5,629.5,281.5,629.4z"/>
	<path fill="#FFFFFF" d="M181.2,314.8c-1.2,1.5-2.4,2.9-3.7,4.3c-0.8,0.8-4.1,0.9-2.7-0.5c2.1-2.1,4-4.5,5.7-7
		c-0.7-2.6-1.8-5-2.9-7.4c-2.7-5.7-6-11.1-9.6-16.3c-6-8.8-12.7-17-19.3-25.3c-3.1,2.8-6,6-9.4,8.4c-3.4,2.4-6.7,4.8-6.2,9.5
		c0.1,0.6-0.9,1.1-1.9,1.3c2.9,5.2,5.6,10.4,8.1,15.8c0.5,1.1-2.3,1.9-2.8,0.8c-6.5-14.4-15.3-27.5-22.4-41.6
		c-3.5-6.9-6.6-14-8.7-21.5c-1.7-5.9-2.9-11.9-4.4-17.9c-1.3-5.2-4-9-7.6-12.8c-4.2-4.4-9.5-6.4-14.9-8.8c-3.3-1.4-6-3.4-8.9-5.6
		c-2.3-1.7-5.3-4-8.3-4.2c-1.4-0.1,1,4,1.1,4.2c1.1,1.4,2.4,2.4,3.9,3.3c2.5,1.5,4,4.1,5.9,6.4c0.1,0.1,0.1,0.1,0.1,0.2
		c3.1,0.8,6.3,1.4,9.3,2.6c5.2,1.9,9.7,4.9,13.7,8.7c0.9,0.9-1.7,2-2.6,1.2c-4.4-4.2-9.6-7.4-15.5-9c-2.1-0.6-4.2-1-6.3-1.5
		c-2.5-0.5-4.7-1.6-7-2.6c-1.9-0.8-4.2-0.9-5.9-2.1c-0.7-0.5-1.4-1.2-2.1-1.8c-0.8-0.7-1.8-1-2.6-1.6c-1.5-1.2-1.4-3.4-2.2-5.1
		c-0.6-1.6-1.4-3-2.7-3.8c0.5,2.3,1.3,4.5,1.9,6.7c0.7,2.5,1.1,5,3,6.9c1.5,1.4,3.3,2.7,4.7,4.3c2,2.1,4.5,2.8,6.9,4.3
		c1.3,0.8-1.2,2.1-2.2,1.5c-2.6-1.5-5.1-2.5-7.3-4.6c-1.7-1.6-3.5-3-5.1-4.6c-1.8-1.9-2.1-4.5-2.9-6.9c-0.9-2.9-1.8-5.7-2.3-8.7
		c-0.1-0.7,0.6-1.1,1.2-1.2c-0.4-1.4-1-2.7-2.1-3.4c0,5-0.1,9.8,1.4,14.7c1,3.5,1,7.8,4.1,10.1c2.2,1.6,4.6,2.8,6.9,4.3
		c1.3,0.9-1.1,2.3-2.2,1.6c-2.7-1.8-5.7-3.1-8.1-5.3c-2.5-2.2-2.4-6-3.3-9c-0.8-2.9-1.7-5.9-1.7-8.9c0-0.5,0-1,0-1.6
		c-0.5-1.8-1.4-3.9-2.8-5.2c0,2.1-0.1,4.2-0.1,6.3c0,3.1,0.5,5.7,1.3,8.7c0.5,1.9,0.8,4.3,1.5,6.3c0.1,0.1,0.1,0.1,0.1,0.2
		c0.3,0.8,0.6,1.5,1.1,2.2c1.2,1.7,3,3,4.7,4.2c3.5,2.4,7.3,4.5,11,6.4c1,0.3,1.9,0.6,2.9,0.9c6,1.6,12.3,1.6,18.3,3
		c5.2,1.3,8.2,4.9,9.7,10c1.5,5.2,2.4,10.6,3.4,15.9c2.7,13.8,5,27.7,9,41.3c3.3,11.2,7.6,22.1,13.1,32.4
		c5.7,10.6,12.5,20.6,19.3,30.5c9.1-4,17.3-9.1,24.1-16.5c-2.5-7.7-4-15.6-6.1-23.4c-2.5-9.8-6.4-18.5-15.6-23.5
		c-1.6-0.9,1.4-2.5,2.6-1.9c9.3,5.1,13.7,13.9,16.2,23.8c2.8,11.2,4.8,22.4,9.7,32.9c7.8-3.5,13.3-13,16.4-20.6c0-0.1,0-0.2,0-0.3
		C181.5,317.5,181.4,316.1,181.2,314.8z"/>
	<path fill="#FFFFFF" d="M263.2,90.8C263.2,90.8,263.2,90.8,263.2,90.8C263.2,90.7,263.2,90.7,263.2,90.8
		C263.2,90.8,263.2,90.8,263.2,90.8C263.2,90.8,263.2,90.8,263.2,90.8z"/>
	<path fill="#FFFFFF" d="M329.8,306.5c6.5,4.4,11.5,11.7,16.1,17.9c4.3,5.9,8.7,11.9,12,18.4c9.1-8.4,17.2-18.8,22.6-30.2
		c-0.1-0.1-0.2-0.1-0.3-0.2c-7.5-10.7-14.6-21.6-22.6-31.9c-3-3.9-6-7.8-9.1-11.7c-1.7-2.1-3.3-4.4-5.2-6.4
		c-2.8,8.1-7,15.9-11.7,23.1c-6.6,10.4-14.8,20.1-19.8,31.4c0,0,0,0,0,0c-0.5,11.5-3.4,22.6-7.9,33.3c0,0,0,0,0,0
		c-6.1,16.9-15.3,32.8-24.9,47.9c0.1,0.1,0.1,0.2,0.1,0.3c2.1,10.1,4.5,20.2,8.1,29.9c3.5,9.6,8.3,18.5,14,27c0,0.1,0.1,0.1,0.1,0.2
		c7.5-0.8,14.9-4.1,21.6-7.5c6.5-3.3,12.8-7,18.7-11.1c-8.9-23.6-14.7-48.2-24.6-71.4c-0.1-0.1,0.1-0.3,0.3-0.5
		c-0.2-0.1-0.4-0.4-0.4-0.7c2.4-18.8,7-37.2,9.8-56c0-0.1,0-0.2,0.1-0.2C326.4,306.9,328.7,305.7,329.8,306.5z"/>
	<path fill="#FFFFFF" d="M233.3,357.1c0-1.7,0-3.4-0.1-5.1c-15.6,2.2-29.6,11.2-41.6,21c-11.8,9.6-22.3,20.7-32.1,32.3
		c0.2,6.2,6.9,10.5,11.6,13.2c8,4.6,16.7,8,25.4,11c15.3,5.2,30.9,8.9,46.5,13.3c11.9-13.5,22.5-28.2,32.1-43.3
		c9.4-14.7,18.4-30,24.6-46.3c-0.1-0.1-0.1-0.1,0-0.2c0.3-0.7,0.6-1.3,0.8-2c0-0.1,0-0.1,0.1-0.2c0,0,0,0,0-0.1
		c0.6-1.5,1.3-3,1.8-4.5c1.3-3.5,2.4-6.9,3.3-10.4c-0.1,0-0.1-0.1-0.1-0.1c-3.8-18.5-9-36.8-21.2-51.7
		c-14.1-17.1-33.6-27.7-55.2-32.1c-0.2,0-0.3-0.1-0.3-0.3c1.9-8.8,8.7-16.1,15.9-21.3c-13.1-2.4-25.7,0.1-38.7,2
		c-0.3,0-1.4,0.3-1.3-0.3c1.3-7.6,3.4-16.3,8-22.6c-4.5-3.1-8.1-7.1-10.3-12.4c-15.1-3.3-21.7,18.4-23.7,29.7
		c-1.3,7.6-2.5,15.7-6.1,22.6c-3.8,7.2-9.8,12.5-16.2,17.3c-0.1,0.1-0.2,0.1-0.3,0.2c5.7,7.1,11.3,14.2,16.2,21.8
		c3.7,5.6,8.2,12.3,10.6,19.2c2.3-4.1,4.3-8.4,6.1-12.6c3.5-8.4,6.4-17.1,7.9-26.1c0-0.1,0.1-0.3,0.2-0.4c-0.6-1.1,1.8-2.4,2.9-1.6
		c13.4,10.3,23.7,23.9,29.3,39.9c5.7,16.1,7.2,33.2,7.3,50.1C236.7,358.5,233.3,358.9,233.3,357.1z M275.2,352.6
		c1.5-4.8,5.6-9,10.4-10.6c4.9-1.6,8.8,0.9,9.1,6.2c0.3,4.7-1.8,10.1-7.5,9.6c-4.6-0.4-6.9-4.1-7.3-8.2c-0.6,0.9-1.1,1.8-1.3,2.6
		C278.2,353.5,274.8,353.9,275.2,352.6z M259,385.1c0.9-2,1.1-4.3,2.4-6c0.5-0.7,2.7-1.4,3.2-0.5c2.4,3.8,2.3,8.4,2.3,12.7
		c0,1.2-3.4,1.7-3.4,0.9c0-3,0-6.2-0.8-9.1c-0.2,0.5-0.3,1-0.5,1.4C261.9,385.6,258.7,385.9,259,385.1z"/>
	<path fill="#FFFFFF" d="M288,588.6c-2.7,0.6-5.4,1.1-8.2,1.5c1.4,10.2,2.2,20.4,3.7,30.6c3.1-11.3,7.5-22.3,11.1-33.4
		C292.4,587.6,290.2,588.1,288,588.6z"/>
	<path fill="#FFFFFF" d="M288.1,355.6c3.8,0.6,3.6-6.3,3-8.4c-1.3-5-5-3.9-8-1.3c0.1,0.1,0.1,0.3,0.1,0.5
		C283,349.8,284,355,288.1,355.6z"/>
	<path fill="#FFFFFF" d="M318.8,516.7c4.5-22.7,8-45.8,8.2-68.9c-1.6,0.8-3.2,1.6-4.8,2.4c-7.1,3.4-14.7,6.5-22.6,7.1
		c-0.8,0.1-1.2-0.1-1.3-0.4c-0.1-0.1-0.2-0.1-0.2-0.2c-5.9-8.6-10.7-17.8-14.3-27.5c-3.2-8.8-5.5-17.9-7.4-27
		c-9.4,14.4-19.5,28.4-30.9,41.2c-0.1,0.1-0.2,0.1-0.3,0.2c0,0.5-2.2,1.5-3,1.3c-16.4-4.7-33-8.5-49.1-14.1
		c-7.8,22.5-7.8,47.9-5.6,71.3c2.2,23.4,6.9,47.7,17.4,69c6.7,4.4,13.7,8.4,20.9,11.8c7.8,3.8,15.7,6.9,24.4,7.6
		c9.8,0.8,19.2-0.4,28.9-1.4c7.7-0.9,15.2-3.4,23-3.9C308.4,562.4,314.2,539.7,318.8,516.7z"/>
	<path fill="#FFFFFF" d="M227.8,195.4c-0.1,0.2-0.3,0.4-0.6,0.6c2.5,0.6,5,1,7.3,1.1c9.4,0.7,18.9-0.1,28.2-1.7
		c2.4-0.4,0.8,1.1-0.6,1.4c-10.1,1.7-20.7,2.7-30.9,1.7c-6.2-0.7-14.5-2.4-17.4-8.1c-0.3,0-0.5,0.1-0.8,0.1c-2.6,0-5.4-0.1-8.1-0.2
		c5,26,40.2,26,61,25.3c0.5-2.3,2-4.2,4.8-4.8c3.5-0.9,7.4,1.5,9.2,4.5c4.1-0.7,8.6-1.3,11.3-4.8c1.8-2.4,2.4-5.5,1.6-8.4
		c-0.2-0.6-0.4-1.1-0.6-1.6c0,0-0.1-0.1-0.1-0.1c-2.8-6.3-9.9-8.7-16.5-7.3c-0.8,0.4-2,0.7-2.4,0.3c-10.8-8-9.9-23.2-9.9-35.2
		c0-1.1,3.4-1.6,3.4-0.9c0,11.5-0.9,26,8.7,34.1c5.3-1.1,11.3-0.3,15.4,3c2.6-4.3,6.8-7.6,9.8-11.6c3.1-4.2,5.8-12.3,0.1-15.9
		c-6.3-3.9-20.5,1.2-20.7-9.8c0-1.4,3.3-2.1,3.4-0.9c0.3,11.4,17.2,3.3,22.3,11.1c7.5,11.6-8.5,19.9-12.6,28.9
		c0,0.1-0.1,0.1-0.1,0.2c0.5,0.6,0.9,1.3,1.3,2.1c0,0,0.1,0,0.1,0c6.6,0.1,13.4,1.3,19.9,2.6c2.8,0.6,5.7,1.2,8.5,1.8
		c2.2-13.3,0-28-6.3-39.9c-3.5-6.6-8.5-12.6-14.8-16.5c-3.2-2-6.6-3.4-10-4.4c-0.4,0.2-0.9,0.4-1.2,0.4c-4.4-0.1-8.7-1.8-13-2
		c-2.2,3.5-4.7,6.8-7.6,9.7c-12.3,12.6-25.9,12.9-38.2,6.7c1.5,6.1,2.4,12.3,1.9,18.5C232.7,182.5,230.7,189.1,227.8,195.4z
		 M268.3,196.5c0.7-0.5,1.6-0.7,2.4-0.6c2,0.1,4.1,0.8,5.1,2.7c1,1.8,0.9,3.9,0.6,5.9c-0.1,0.9-3.5,1.5-3.3,0.5
		c0.5-3.6-0.3-7.4-4.6-7.6C267.9,197.3,267.8,196.9,268.3,196.5z"/>
	<path fill="#FFFFFF" d="M320.1,254.5c-0.6,1.5-1.2,3-1.9,4.5c-3.2,6.9-7.2,13.4-11.1,19.8c2.3,6.9,3.6,14.3,4.2,21.7
		C316.2,285.5,320,270.1,320.1,254.5z"/>
	<path fill="#FFFFFF" d="M320.5,297.1c4.9-7.1,9.7-14.2,13.7-21.8c4.4-8.4,8-17.4,9-26.9c0.1-0.9,0.5-1.9-0.3-2.4
		c-0.7-0.4-1.4-0.8-2.2-1.2c-1.8-0.9-3.6-1.8-5.5-2.6c-4.1-1.7-8.4-3.1-12.8-3.3c3.7,23.8-2.9,47.3-10.6,69.6c0,0,0,0.1-0.1,0.1
		c0,0.6,0,1.2,0.1,1.9C314.5,305.8,317.5,301.5,320.5,297.1z"/>
	<path fill="#FFFFFF" d="M332.8,208.6c-6.7-2.4-13.7-4-20.7-5.4c-5.6-1.1-11.4-2.2-17.1-2.4c0.1,0.2,0.1,0.4,0.2,0.6
		c0.8,3.5,0.2,7.4-2.3,10.1c-0.1,0.1-0.2,0.2-0.2,0.2c14.4-1.4,24.9,11.1,28.7,24.3c1.8-3.5,3.9-6.9,5.6-10.4
		C329.6,220.2,331.5,214.5,332.8,208.6z"/>
	<path fill="#FFFFFF" d="M248.1,229.6c-3.8,2.7-7.4,6-10.2,9.7c-1.8,2.4-3.5,5-4.6,7.8c-0.5,1.3-1.7,3.2,0.2,3.6
		c1.3,0.3,2.6,0.6,3.9,0.9c13.8,3.5,26.9,9.5,37.8,18.6c10.2,8.6,18.6,19.1,24,31.3c3.7,8.3,6.2,17,8.2,25.8
		c1.1-7,1.4-14.2,0.8-21.6c-0.9-12.1-2.3-24.8-8.6-35.5c-6.9-11.8-18.4-18.7-29.6-26.1c-11.2-7.3-20.9-15.5-28.6-26.5
		c-9.5-0.9-19.1-2.9-26.6-7.3c-3.7,5.9-5.5,13.5-6.7,20.2c13.4-2,26.5-4.4,40-1.8C248.8,229.1,248.4,229.5,248.1,229.6z"/>
	<path fill="#FFFFFF" d="M203.2,119.2c4.5,10.1,10.8,19.8,18.9,27.4c7.2,6.8,17.1,13.3,27.5,12.4c10.3-0.9,18.5-9.3,23.7-17.6
		c10.5-16.8,14-39.6,6.2-58.1c-0.2,0-0.5,0-0.6-0.1c-6.4-3.1-15.1-4.3-21.6-1c-7.3,3.8-9,12.5-7.2,20c0.3,1.4-3,2.3-3.4,0.9
		c-2.1-9.1,0.7-18.9,9.7-22.9c6.8-3,14.6-2.8,21.5-0.4c-1.1-2.1-2.3-4.1-3.6-6c-0.9-1.2,2.4-2.4,3.1-1.4
		c11.7,16.5,12.4,39.8,4.5,58.8c0,0,0,0,0.1,0c6.4,1.3,13.3,1.4,19.4-1.4c14.6-6.7,19.7-25.5,16.4-40.2c-1.7-7.5-5.4-14.7-11.6-19.4
		c-5.4-4.1-11.2-5.4-17.9-5.9c-17.6-1.3-35.4-0.5-53-2.2c-4.4-0.4-15.3-1.2-22-4.8c-2.7,8.9-12.3,16.5-21.1,18
		c-2.3,0.4-1.3-1.8,0.4-2.1c8-1.3,16.4-9.7,17.8-17.6c0-0.1,0-0.1,0.1-0.2c-2.2-2-3.3-4.6-2.1-8.1c0.3-1,3.6-1.4,3.3-0.5
		c-1.8,5.5,3.1,8.7,7.7,10.3c7.4,2.6,15.6,3.3,23.4,3.9c9.4,0.7,18.9,0.9,28.4,1.1c7.7,0.2,15.4,0.2,23,1.1
		c6.4,0.7,12.4,3.1,17.2,7.7c11,10.6,13.4,28.5,7.8,42.4c-2.8,6.9-7.6,12.9-14.1,16.5c-0.9,0.5-1.9,1-2.9,1.4
		c20-6.8,34.1-29.9,28.6-51c-2.7-10.3-10-20.3-20.2-24.2c-10-3.8-21.1-3-31.5-1.8c-18.6,2-43.6,8.4-58.4-7c-1.4-1.4,2.5-3,3.7-1.8
		c10.3,10.8,26.8,9.2,40.3,7.7c10.9-1.2,22.3-3.4,33.5-2.7c-3.1-4.6-7.2-8.1-12.4-10.1c-5.4-2.1-11.1-3-16.7-4.2
		c-6.4-1.4-12.1-3.6-18-6.2c-6.7-3-13.9-4.9-21.3-5c-12.1-0.2-23.9,4.2-33.2,11.9c-8.5,7.1-13.8,16.8-16.6,27.5
		c-3,11.8-1.2,24-2.7,36c-0.8,6.5-1.9,12.9-2.5,19.4c-0.6,6-1.2,12.2-0.1,18.2c2.1,11.4,12.4,18.5,22.8,21.9
		c10.2,3.3,21,4.2,31.7,4.2c-0.5-3.2-1.2-6.3-2.1-9.4c-7.9-5.1-15-12.9-20.7-21.7c-0.2,1.4-0.6,2.8-1.4,4.1c0.7,0.3,1.2,0.6,1.7,1.1
		c1.3-0.6,3.3-0.5,2.9,0.5c-0.6,1.8-1,3.5-1.3,5.4c-0.2,1.4-4.2,2.2-4,0.5c0.2-2.4-0.1-5-2.9-5.5c-0.6-0.1-1.1-0.7-0.7-1.2
		c2.1-2.9,2.1-5.7,1.6-9.1c-0.1-0.5,0.3-1,0.9-1.3c-6.6-12.2-10.2-25.6-8.9-36.4c0.1-1.2,3.5-1.8,3.4-0.4
		C196.4,100.2,199.2,110.3,203.2,119.2z M206.6,106.1c-2.3,0,0-2,1.3-2c1.8,0,3.5-0.1,5.3-0.3c-2-1.5-2-4.6-0.8-6.7
		c0.4-0.7,1.4-1,2.2-1c0.6,0,1.4,0.5,1,1.2c-0.8,1.4-1.1,3.3,0.2,4.6c0.5,0.5,0.9,0.5,1.3,0.3c-1.1-0.8-0.9-2.2-0.4-3.4
		c0.5-1.2,1.5-1.9,2.6-2.2c-1.5-0.5-3.1-0.9-4.6-1c-2.2-0.1-6.9,0.4-8.2,2.6c-0.5,0.9-3.7,1.2-3.3,0.5c1.8-3.1,7.1-4.3,10.4-4.7
		c5-0.6,10.5,1.4,14.5,4.3c0.7,0.5-2.3,1.8-3.1,1.2c-0.8-0.6-1.7-1.1-2.6-1.6c0,0.1,0,0.1,0,0.2c0,1-0.5,2-1,2.8
		c-0.3,0.5-0.6,1-1,1.4c1.7-0.4,3.3-1,4.9-1.6c1.6-0.6,3.5,0.6,1.4,1.5C220.1,104.8,213.4,106,206.6,106.1z M269.3,120.3
		c-3.9,7.7-14.4,12.1-22.4,14c-4.4,1-9,1.4-13.5,1.2c1.6,5.8,8.9,7,14.1,6.4c6-0.6,12.6-3.6,13.8-10.1c0.3-1.6,3.7-2,3.4-0.2
		c-1.5,8.1-9.9,12.3-17.5,12.9c-6.4,0.5-15.5-1-17.3-8.4c-0.1-0.3,0-0.6,0.1-0.8c-2.7-0.2-5.6-0.6-8.1-1.8c-0.4-0.2,2.3-1.6,3.2-1.1
		c1.8,1,4.1,1.3,6.3,1.5c4.7-7.9,15.3-9.2,23.6-7.1c0.7,0.2-1.6,1.1-2.1,1c-7.3-1.8-15.4-0.9-19.3,6.3c4.6,0.3,9.3,0.2,13.8-1
		c6.7-1.7,15.1-5.6,18.5-12.1C266.4,120,269.6,119.8,269.3,120.3z M253.5,91.7c3.4-7.5,15.6-10.2,22.7-7c0.3,0.2-2.3,1.5-3.2,1.1
		c-2.8-1.3-6.3-1.4-9.4-0.5c1,0.4,1.6,1.3,1.7,2.4c0.5,0,1,0.3,1.1,0.8c0.3,1,0.3,2.1-0.3,3c-0.6,0.8-1.7,1.2-2.7,1.3
		c-2,0.1-3.8-1.3-4.4-3.2c-0.2-0.5-0.2-1.1-0.1-1.6c-0.9,0.8-1.6,1.8-2.1,3C256.4,92,253.3,92.2,253.5,91.7z M256,93.9
		c4.3,1.3,8.7-0.3,11.7-3.6c0.6-0.6,3.8-1,3-0.2c-4.1,4.6-11.5,6.9-17.5,5.2C252.2,94.9,255.2,93.7,256,93.9z M240.5,75.8
		c9-12.3,25.3-10.3,38.7-10.2c1.6,0-1.5,1.4-2.2,1.4c-11.5,0-25.4-2.3-33.2,8.3C243.3,76.1,240.3,76.2,240.5,75.8z M239.1,117
		c0.7-0.4,1.6-0.6,2.4-0.3c1.9,0.6,6.5,1.3,7.8-0.7c1.3-2-0.8-5-1.6-6.8c-0.4-0.9,2.8-2,3.4-0.9c1.6,3.5,3.6,7.3-0.9,9.5
		c-3.5,1.7-7.8,1.7-11.4,0.6C238,118,238.8,117.2,239.1,117z M237.7,103c0.4,0.9-3.4,2.1-3.9,1c-2.2-5.7-6.2-10.8-12.2-12.8
		c-5.4-1.9-11.1-1.4-16.5,0.3c-2.3,0.7-2.6-0.8-0.4-1.5c6.2-1.8,13.2-2.7,19.4-0.6C230.8,91.6,235.2,96.6,237.7,103z M196.6,78
		c2.6-2.9,6.3-4.8,10.3-4.5c4.6,0.4,8.8,2.5,13.5,1.4c2.3-0.5,0.7,1-0.6,1.3c-3.3,0.7-6.5,0.5-9.8-0.3c-1.5-0.4-3.1-0.9-4.7-1
		c-2.6-0.2-4.1,1-5.7,2.8C199.1,78.4,195.9,78.8,196.6,78z"/>
	<path fill="#FFFFFF" d="M291,244c-5.3-2.8-10.5-6.1-15.1-10.1c-3.9-3.5-9-8.3-10.1-13.7c-0.1-0.7-0.2-1.4-0.2-2.1
		c-5.9,0.2-12.9,0.3-20.1-0.1c1.3,1.8,2.6,3.6,4.1,5.3c8.7,10.2,19.7,17.1,30.8,24.4c10.7,7.1,20.3,15,25.3,27.2
		c0,0.1,0.1,0.2,0.1,0.4c2.9-4.8,5.8-9.5,8.2-14.5c2.7-5.6,6.3-12.9,5-19.4c-2.5-13.1-12.6-30.6-28.4-27.3c-0.5,0.1-0.8,0.1-1.1,0
		c-3.1,1.7-6.8,2.3-10.4,3c-0.6,0.1-1.2,0.1-1.5-0.5c-2-4-9.2-6.4-9.5-0.1c-0.2,4.2,2.1,7.7,4.7,10.8c5.5,6.5,12.6,11.4,20.1,15.3
		C294.1,243.3,291.9,244.5,291,244z M292.2,222.5c3.5-1.5,7.9-2.8,11.6-1.2c3.3,1.4,5.2,4.7,6.1,8.1c1.8,7.2,1,16.9-3.5,23.1
		c-0.6,0.8-3.5,0.9-3.3,0.6c3.9-5.4,4.9-13.5,4-20c-1-6.8-5.2-13.5-13-10.3C293.3,223.1,290.1,223.3,292.2,222.5z"/>
	<path fill="#FFFFFF" d="M399.3,314.7C399.3,314.7,399.3,314.7,399.3,314.7c-4-3.7-8.4-7-11.8-11.1c-5.3,16.1-16.3,30.8-28.9,41.8
		c-0.1,0.1-0.1,0.1-0.2,0.2c-0.3,0.3-0.9,0.5-1.4,0.5c3.8,4,6.9,8.6,9.5,13.5C380.9,347.7,396.7,334.1,399.3,314.7z"/>
	<path fill="#FFFFFF" d="M385,300.3C385,300.3,385,300.3,385,300.3c-0.1-0.1-0.1-0.2-0.2-0.3c-1.7-1.7-3.6-0.3-5.4,0.8
		c-0.8,0.5-1.7,0.8-2.6,0.7c0,0,0,0,0,0c1.7,2.5,3.5,5,5.2,7.5C383.2,306.2,384.2,303.3,385,300.3z"/>
	<path fill="#FFFFFF" d="M263.2,90C263.2,90,263.2,90,263.2,90C263.2,90,263.2,90,263.2,90C263.2,90,263.2,90,263.2,90z"/>
	<path fill="#FFFFFF" d="M261.6,87.7C261.6,87.7,261.7,87.7,261.6,87.7C261.7,87.6,261.7,87.7,261.6,87.7
		C261.6,87.6,261.6,87.6,261.6,87.7z"/>
	<path fill="#FFFFFF" d="M262.5,87.4C262.5,87.4,262.5,87.5,262.5,87.4C262.5,87.4,262.5,87.4,262.5,87.4
		C262.5,87.4,262.5,87.4,262.5,87.4z"/>
</g>
<g>
	<path fill="#191817" d="M262.4,384.6c0.2-0.5,0.4-0.9,0.5-1.4c0.8,2.9,0.8,6,0.8,9.1c0,0.8,3.4,0.3,3.4-0.9c0-4.4,0-8.9-2.3-12.7
		c-0.6-0.9-2.7-0.2-3.2,0.5c-1.4,1.7-1.6,4-2.4,6C258.7,385.9,261.9,385.6,262.4,384.6z"/>
	<path fill="#191817" d="M238.8,118.2c3.6,1.1,7.9,1.1,11.4-0.6c4.5-2.1,2.5-6,0.9-9.5c-0.5-1.1-3.8,0-3.4,0.9
		c0.9,1.8,2.9,4.8,1.6,6.8c-1.3,2-6,1.3-7.8,0.7c-0.8-0.2-1.7-0.1-2.4,0.3C238.8,117.2,238,118,238.8,118.2z"/>
	<path fill="#191817" d="M204.7,90c-2.2,0.7-1.9,2.1,0.4,1.5c5.4-1.6,11.1-2.1,16.5-0.3c6,2,9.9,7.1,12.2,12.8
		c0.4,1.1,4.2-0.1,3.9-1c-2.5-6.4-6.9-11.4-13.5-13.6C218,87.3,210.9,88.2,204.7,90z"/>
	<path fill="#191817" d="M225.1,100.8c-1.6,0.6-3.2,1.1-4.9,1.6c0.4-0.4,0.8-0.9,1-1.4c0.5-0.8,0.9-1.8,1-2.8c0-0.1,0-0.1,0-0.2
		c0.9,0.5,1.8,1,2.6,1.6c0.8,0.6,3.8-0.7,3.1-1.2c-4-3-9.5-4.9-14.5-4.3c-3.3,0.4-8.5,1.6-10.4,4.7c-0.4,0.6,2.8,0.4,3.3-0.5
		c1.3-2.2,6-2.7,8.2-2.6c1.5,0.1,3.1,0.4,4.6,1c-1.2,0.3-2.1,1-2.6,2.2c-0.5,1.2-0.6,2.5,0.4,3.4c-0.4,0.2-0.8,0.2-1.3-0.3
		c-1.2-1.2-1-3.2-0.2-4.6c0.4-0.7-0.4-1.2-1-1.2c-0.8-0.1-1.8,0.3-2.2,1c-1.2,2.1-1.3,5.2,0.8,6.7c-1.7,0.2-3.5,0.3-5.3,0.3
		c-1.3,0-3.5,2-1.3,2c6.8-0.1,13.5-1.3,19.9-3.7C228.7,101.5,226.7,100.2,225.1,100.8z M216.8,101.5
		C216.8,101.5,216.8,101.5,216.8,101.5C216.8,101.5,216.8,101.5,216.8,101.5C216.8,101.5,216.8,101.5,216.8,101.5z"/>
	<path fill="#191817" d="M199.7,77.8c1.6-1.8,3.2-3,5.7-2.8c1.6,0.1,3.1,0.6,4.7,1c3.3,0.8,6.5,1,9.8,0.3c1.3-0.3,2.9-1.8,0.6-1.3
		c-4.7,1-8.9-1-13.5-1.4c-4-0.3-7.7,1.6-10.3,4.5C195.9,78.8,199.1,78.4,199.7,77.8z"/>
	<path fill="#191817" d="M243.8,75.3c7.7-10.6,21.7-8.3,33.2-8.3c0.7,0,3.8-1.4,2.2-1.4c-13.4,0-29.7-2.1-38.7,10.2
		C240.3,76.2,243.3,76.1,243.8,75.3z"/>
	<path fill="#191817" d="M266,120.9c-3.3,6.5-11.8,10.4-18.5,12.1c-4.5,1.2-9.2,1.3-13.8,1c3.9-7.2,12-8.2,19.3-6.3
		c0.6,0.1,2.8-0.8,2.1-1c-8.3-2.1-18.9-0.7-23.6,7.1c-2.2-0.2-4.5-0.6-6.3-1.5c-0.9-0.5-3.6,0.9-3.2,1.1c2.4,1.3,5.3,1.6,8.1,1.8
		c-0.1,0.2-0.2,0.5-0.1,0.8c1.7,7.4,10.8,9,17.3,8.4c7.6-0.7,15.9-4.8,17.5-12.9c0.3-1.8-3.1-1.4-3.4,0.2
		c-1.2,6.5-7.9,9.5-13.8,10.1c-5.1,0.5-12.5-0.7-14.1-6.4c4.5,0.2,9.1-0.2,13.5-1.2c7.9-1.8,18.4-6.2,22.4-14
		C269.6,119.8,266.4,120,266,120.9z"/>
	<path fill="#191817" d="M278.6,352.2c0.2-0.8,0.7-1.7,1.3-2.6c0.5,4.1,2.7,7.8,7.3,8.2c5.7,0.5,7.8-4.9,7.5-9.6
		c-0.3-5.2-4.2-7.7-9.1-6.2c-4.8,1.5-8.9,5.8-10.4,10.6C274.8,353.9,278.2,353.5,278.6,352.2z M291.1,347.2c0.6,2.1,0.8,9-3,8.4
		c-4.1-0.7-5.1-5.8-4.9-9.2c0-0.2,0-0.3-0.1-0.5C286.2,343.3,289.8,342.2,291.1,347.2z"/>
	<path fill="#191817" d="M307,233.1c1,6.5,0,14.6-4,20c-0.2,0.2,2.7,0.2,3.3-0.6c4.5-6.2,5.3-15.9,3.5-23.1
		c-0.8-3.4-2.7-6.7-6.1-8.1c-3.7-1.6-8.1-0.2-11.6,1.2c-2,0.9,1.2,0.7,1.9,0.4C301.8,219.6,306,226.3,307,233.1z"/>
	<path fill="#191817" d="M253.2,95.2c6,1.7,13.4-0.5,17.5-5.2c0.7-0.8-2.5-0.4-3,0.2c-3,3.3-7.4,4.9-11.7,3.6
		C255.2,93.7,252.2,94.9,253.2,95.2z"/>
	<path fill="#191817" d="M256.8,91.1c0.5-1.1,1.3-2.1,2.1-3c-0.1,0.5-0.1,1.1,0.1,1.6c0.6,1.9,2.4,3.2,4.4,3.2c1,0,2.1-0.5,2.7-1.3
		c0.7-0.9,0.6-2,0.3-3c-0.1-0.5-0.6-0.7-1.1-0.8c-0.1-1.1-0.7-2-1.7-2.4c3.1-1,6.6-0.9,9.4,0.5c0.9,0.4,3.5-1,3.2-1.1
		c-7-3.2-19.3-0.5-22.7,7C253.3,92.2,256.4,92,256.8,91.1z M263.2,90C263.2,90,263.2,90,263.2,90C263.2,90,263.2,90,263.2,90
		C263.2,90,263.2,90,263.2,90z M262.6,87.4C262.5,87.4,262.5,87.4,262.6,87.4C262.5,87.5,262.5,87.4,262.6,87.4
		C262.5,87.4,262.5,87.4,262.6,87.4z M261.7,87.7C261.7,87.7,261.6,87.7,261.7,87.7c-0.1,0-0.1,0-0.2-0.1
		C261.7,87.7,261.7,87.6,261.7,87.7z M263.2,90.8C263.2,90.8,263.2,90.8,263.2,90.8C263.2,90.7,263.2,90.7,263.2,90.8
		C263.2,90.8,263.2,90.8,263.2,90.8C263.2,90.8,263.2,90.8,263.2,90.8z"/>
	<path fill="#191817" d="M45.2,223.3c0.1,0,0.2,0.1,0.3,0.1c0,0,0,0,0,0c0,0,0,0,0,0c0.1,0.1,0.1,0.1,0.2,0.2c0,0,0,0,0,0
		c0,0,0,0.1,0.1,0.1c0,0.1,0,0.2,0.1,0.2c0,0,0,0,0,0c0,0,0,0,0,0c-0.6-0.4-1.5-0.3-2.1,0c-0.4,0.2-1.4,0.9-0.9,1.5
		c0.8,0.8,1.8,1.2,2.9,1.1c1-0.1,2.1-0.5,2.7-1.3c1.1-1.3,1-3.1-0.6-3.8c-0.8-0.3-1.7-0.2-2.4,0.3C45,222.1,44.4,222.9,45.2,223.3z
		 M46.4,224.6C46.4,224.6,46.5,224.6,46.4,224.6C46.5,224.6,46.5,224.6,46.4,224.6C46.5,224.6,46.5,224.6,46.4,224.6z"/>
	<path fill="#191817" d="M268.5,197.4c4.2,0.3,5.1,4.1,4.6,7.6c-0.1,1,3.2,0.4,3.3-0.5c0.3-2,0.3-4.1-0.6-5.9
		c-1-1.9-3.1-2.5-5.1-2.7c-0.8-0.1-1.7,0.2-2.4,0.6C267.8,196.9,267.9,197.3,268.5,197.4z"/>
	<path fill="#191817" d="M566.1,384.3c-3.3-0.8-6.5-2.2-9.7-3.5c0.8-0.3,1.3-0.8,1.4-1.8c0-0.4-0.3-0.7-0.7-0.8
		c-2.5-0.5-5-1.5-7.4-2.3c-3.9-1.3-7.7-2.7-11.6-3.9c-0.4-0.1-0.9,0-1.4,0.2c-0.3-0.1-0.5-0.3-0.8-0.4c-3.8-1.9-7.6-3.8-11.5-5.4
		c-3.6-1.4-8.1,0.4-11.6,1.4c-10.8,3.1-23.3,7.4-34.5,3.6c-11.6-3.9-22.5-10.4-33.3-16.1c-8-4.2-15.9-8.3-24-12.3
		c-4.2-2-8.5-4-12.7-5.9c-2.1-0.9-4.3-1.9-6.4-2.8c-1.1-0.5-2.4-0.8-3.2-1.7c-0.5-0.6-0.9-1.2-1.3-1.7c2.8-5.1,4.9-10.5,5.7-16.6
		c0-0.3-0.1-0.6-0.3-0.8c0-0.1,0-0.1-0.1-0.1c-4.9-4.6-10.1-8.7-14.1-14.1c-2.9-4-8.9-0.6-12,1.3c-0.1,0.1-0.2,0.2-0.3,0.2
		c-5.1-7.4-10.2-14.7-15.6-21.8c-5.2-6.7-10.1-14.2-16.3-20c1.3-4.4,2.2-8.8,2.5-13.4c0-0.3-0.1-0.5-0.4-0.7
		c-6.6-4-14.4-7.5-22.2-8.1c1.9-3.7,4-7.2,5.8-10.9c2.8-5.8,4.9-11.8,6.2-18.1c0.1-0.5-0.3-0.7-0.7-0.8c-3.2-1.2-6.5-2.2-9.9-3.1
		c2.6-14.2,0.3-29.9-6.7-42.6c-3.7-6.8-8.9-12.5-15.5-16.5c-7.5-4.7-16.6-6.3-25.3-6c1-1.7,1.9-3.5,2.8-5.4c2,0.3,4,0.5,6,0.6
		c-0.2,0.2-0.4,0.4-0.5,0.6c-0.4,0.9,0.4,1.6,1.2,1.6c21.4,0.5,40.1-14.4,46.3-34.6c6.2-20.1-4.2-43.7-25.1-49.4
		c-2.2-0.6-4.4-1-6.6-1.3c0,0,0-0.1,0-0.1c-3.1-5.3-7.4-9.3-13-11.9c-5.3-2.4-11.1-3.4-16.8-4.6c-7-1.5-13.2-3.8-19.7-6.7
		c-6.6-3-13.7-4.7-21-5c-12.2-0.6-24.3,3.4-34.2,10.4c-4.2,2.9-8,6.4-11.1,10.4c-3.5,4.4-5.8,9.7-7.8,14.9
		c-2.2,5.7-3.4,11.6-3.7,17.6c-0.4,6.1,0.1,12.2-0.3,18.2c-0.9,12.6-4,25-3.9,37.8c0.1,5.3,0.9,10.1,3.6,14.7
		c2.6,4.5,6.7,8.1,11.2,10.8c9.4,5.7,20.9,7.6,31.7,8.4c3.9,0.3,7.8,0.4,11.7,0.4c0.2,0,0.4,0,0.6-0.1c0.4,3.5,0.6,7.1,0.3,10.7
		c-0.1,1-0.2,2-0.3,2.9c-8.6-3.3-17.5-3.2-26.4-1.7c-6.2-2.5-13-3.5-19.4-5.1c-5.8-1.4-14.4-3.1-17.5-8.9c-0.2-0.4-0.6-0.5-1.1-0.5
		c-0.9-0.1-2.1,0.3-2.4,0.8c-2.2,3.4-3.5,7.6-4.8,11.4c-1.3,3.8-3,8-3.3,12.1c-1.8-0.2-3.7-0.6-5.5-1.1c-8.2-2.3-15.9-6.3-23.8-9.2
		c-0.4-0.1-1-0.1-1.5,0.2c-1,0.1-2.1,0.6-2.1,1.2c-0.1,5.4-2.6,10.9-4.2,16c-2.1,6.9-3.9,14-4.2,21.2c0,0.1,0.1,0.2,0.1,0.2
		c0.1,0.2,0.3,0.3,0.7,0.3c1.1,0,2.5-0.3,3.4-0.9c7.7-5.1,17-5.1,25.9-5.7c8.3-0.6,16.9-1.7,24.3-5.7c6-3.3,10.6-9.1,16.9-11.6
		c5-2,10.6-2.5,16.2-2.5c0,0.1,0,0.2,0,0.3c0.2,1.2,0.4,2.3,0.8,3.4c-14.6-1.6-21.9,15.9-25,27.8c-2,7.8-2.6,15.8-5.4,23.4
		c-3.1,8.3-9.6,14.2-16.5,19.4c-1.1-1.4-2.2-2.8-3.4-4.2c-0.5-0.6-1.6-0.4-2.5,0c-0.3,0.1-0.5,0.2-0.6,0.3
		c-4.3,3.4-7.9,7.6-12.4,10.9c-2.9,2.1-5.3,4.4-5.8,7.8c-4.1-7.3-8.4-14.5-12.3-22c-3.8-7.3-7-14.8-9.3-22.7
		c-1.8-6.1-3-12.2-4.5-18.4c-2.5-10.2-11.1-16.9-20.3-20.8c-3.5-1.5-6.7-2.9-9.7-5.2c-2.5-1.9-4.9-3.7-7.8-5
		c-3.8-1.7-9.3-1.3-7.2,4.2c0.9,2.3,2.8,4.2,4.9,5.4c1.7,1,2.9,2.4,4.1,3.8c-0.2-0.1-0.4-0.1-0.5-0.2c-2.2-0.9-4.8-1.3-6.8-2.5
		c-0.9-0.6-1.6-1.6-2.5-2.2c-1.4-0.9-2.6-1.1-2.9-3.1c-0.6-3.2-2.3-6.5-5.3-7.7c0-0.1,0-0.2,0-0.3c-0.9-3.4-2.3-5.7-6.1-6.3
		c-0.6-0.1-1.9,0.3-1.9,1.1c0,0.5,0,1.1,0,1.6c-0.9-0.9-1.9-1.5-3.2-1.7c-0.5-0.1-2.6,0.2-2.6,0.9c0.2,2.9,0.1,5.8,0.1,8.6
		c0,3,0.5,5.7,1.3,8.7c0.3,1,0.5,2.1,0.7,3.2c-2.8-2.5-4.6-6-7.9-8.2c-3.2-2.1-7.3-2.4-10.3,0c-0.2,0.1-0.5,0.5-0.2,0.7
		c2.5,1.9,4.5,4.4,6.3,7c2.3,3.2,4.9,6.1,7.5,9c1.9,2.1,3,3.4,5.6,4c0,1.3,0.1,2.5,0.3,3.8c-4.7,2.3-6.8,7.6-4.5,12.5
		c0.5,1,1.1,1.8,1.8,2.5c-2.5,5.5-4.3,11.4-6.3,17.1c-3,8.5-6.2,16.8-10.1,24.9c-0.5,1,0.7,1.5,1.5,1.5c7.4,0,15-0.2,22.4-1.2
		c0.7-0.1,1.8-0.5,1.8-1.4c0.2-4.4,0.3-8.8,0.5-13.1c0.4,3,0.9,6,1.4,8.9c0.1,0.8,2.7-0.2,3-0.5c0.8-0.9,1.6-1.8,2.4-2.7
		c0.3-0.4,2.3-2.1,2.2-2.6c-0.3-1.3-0.6-2.6-0.8-4c-0.1-0.5,1.9-2.7,2.3-3.2c0.1-0.1,0-0.2-0.1-0.3c-0.4-0.5-2.1-2.4-2-2.5
		c0.3-1.2,0.7-2.5,1-3.7c0.1-0.1,0-0.2-0.1-0.3c-0.4-0.4-2-1.4-2.1-1.9c-0.1-0.9-0.3-1.9-0.4-2.8c-0.5-3.3-0.9-6.5-1.5-9.8
		c4.8-3,8.1-8,5-13.7c-2.8-4.9-8.8-6.1-14-4.9c-0.1-0.7-0.2-1.4-0.2-2.1c3,0.5,5.9,0.9,8.8,1.9c1.8,0.6,3.5,1.2,5.3,1.7
		c0,0,0.1,0,0.1,0.1c0.1,0,0.2,0.1,0.3,0.1c1.4,0.4,2.8,0.9,4.3,1.2c4,1,8.1,1.2,12.2,1.8c3.6,0.5,7.4,1.1,10,3.8
		c1.7,1.7,2.7,4.5,3.3,6.8c3.4,12.1,5,24.8,7.5,37.1c2.6,12.8,6.1,25.5,11,37.6c6.7,16.3,16.5,31.1,26.5,45.5
		c-0.2,0.2,0,0.3,0.3,0.3c0.3,0.1,0.8,0.1,1.2-0.1c0.4,0,0.7-0.1,0.9-0.2c9.2-3.9,17.8-8.7,24.9-15.6c0.9,2.7,2,5.3,3.3,7.9
		c0.3,0.7,1.2,0.9,2,0.6c9.9-3.4,16.7-13.9,20.4-23.2c0.1-0.3,0.1-0.5,0.1-0.7c0,0,0-0.1,0-0.1c0.1-2.5-0.2-5.1-0.8-7.6
		c3.1-4.7,5.6-9.8,7.8-14.9c3.6-8,6.5-16.6,8.1-25.2c11.9,9.8,20.8,22.4,26.2,36.9c5,13.8,6.8,28.5,7.1,43.1
		c-15.1,2.3-28.8,10.3-40.8,19.4c-13.3,10.2-25,22.4-35.8,35.1c-0.3,0.2-0.4,0.4-0.4,0.7c0.1,5.9,6.1,10.2,10.6,13
		c7.4,4.6,15.6,7.9,23.7,10.8c-0.2,0.1-0.4,0.3-0.5,0.4c-8.1,22.6-8.2,48.2-6,71.8c2.1,23.7,6.9,48.4,17.5,69.9c0,0,0,0,0,0.1
		c0,0,0,0.1,0.1,0.1c0.9,0.6,1.8,1.2,2.6,1.7c0,0.1,0,0.3,0.1,0.4c6.9,18.5,13.8,36.9,20.9,55.3c0.9,0,2.7,0,3.7,0
		c-6.8-17.6-13.4-35.2-20-52.9c4.7,2.8,9.5,5.3,14.5,7.7c7.3,3.5,14.7,6.3,22.9,7.3c9.4,1.1,19.1,0.4,28.5-0.8
		c0.6-0.1,1.2-0.2,1.8-0.2c0,0.1,0,0.2,0,0.3c1.7,12.8,2.6,25.8,5,38.5c0,0,0,0.1,0,0.1h3.6c0,0-0.1-0.5-0.2-0.8
		c2.8-14.4,8.7-28.1,13.1-42.1c1.5-0.2,2.9-0.3,4.4-0.3c0.3,0,0.5,0,0.8-0.1c0.9-0.1,1.8-0.5,2-0.9c6.4-22.9,12.2-45.9,16.9-69.2
		c4.6-23.1,8.2-46.6,8.2-70.2c4.7-2.6,9.2-5.5,13.6-8.5c0.1-0.1,0.2-0.2,0.3-0.3c0.5-0.2,0.9-0.5,0.8-0.7c-9-23.8-14.8-48.6-24.8-72
		c0-0.1-0.1-0.1-0.2-0.2c0.1-0.1,0.2-0.3,0.2-0.5c2.3-17.9,6.6-35.6,9.4-53.4c5.1,4.3,9.3,10.3,13.1,15.6
		c4.2,5.6,8.5,11.5,11.7,17.8c-1-0.7-4.2,0.6-3.3,1.4c5.4,4.8,9.5,10.9,12.7,17.3c0.3,0.7,1.6,0.6,2.5,0.2c0.4-0.1,0.7-0.2,1-0.4
		c0.3-0.3,0.7-0.6,1-0.8c0.6,0.7,1.2,1.3,1.9,2c0.8,0.8,1.6,2.2,2.7,2.5c1.3,0.4,2.7,0.7,4,1.1c3.7,1,7.5,1.9,11.2,2.8
		c10.3,2.4,20.6,4.7,30.9,6.9c10.9,2.4,21.9,4.6,32.9,6.8c4.5,0.9,9,1.7,13.4,2.5c4.5,0.8,9,1.3,13.3,2.9c5,1.9,9.7,4.3,15,5.2
		c4.2,0.7,8.5,1.1,12.8,1.7c4.9,0.6,9.8,1.3,14.7,2.2c3.8,0.7,8.2,1.6,11.4,3.9c1.1,0.8,3.6-0.5,2.9-1.6c0.1-0.2,0.2-0.4,0.2-0.6
		c0.2-4.6-3.7-7-7.3-8.8c-3.5-1.7-7.4-2.7-11-4c1.1-0.3,2.3-0.6,3.4-1.1c1.1-0.4,1-0.3,2.5,0c4.6,0.8,9.4,1.6,13.9,2.8
		c2,0.5,4.1,2.1,6,3c2,1,4.1,1.9,6.3,2.4c3.8,0.9,9.5,1.2,12.8-1.3c1.3-0.2,2.8-1.6,1.2-2.2c-1.7-0.7-3.5-1.3-5.2-2
		c2.5-0.1,4.8-0.7,6.6-2.2c0.2-0.2,0.4-0.4,0.5-0.5C566.4,385.4,567.3,384.6,566.1,384.3z M376.8,301.5c0.9,0.1,1.8-0.2,2.6-0.7
		c1.7-1.1,3.6-2.5,5.4-0.8c0.1,0.1,0.2,0.2,0.3,0.3c0,0,0,0,0,0c-0.8,2.9-1.8,5.8-3,8.7C380.3,306.5,378.5,304,376.8,301.5
		C376.8,301.5,376.8,301.5,376.8,301.5z M340.8,244.8c0.7,0.4,1.5,0.8,2.2,1.2c0.8,0.5,0.4,1.5,0.3,2.4c-1,9.5-4.6,18.5-9,26.9
		c-4,7.6-8.9,14.8-13.7,21.8c-3,4.4-6.1,8.7-8.7,13.3c0-0.6,0-1.2-0.1-1.9c0,0,0-0.1,0.1-0.1c7.8-22.3,14.3-45.8,10.6-69.6
		c4.4,0.3,8.7,1.6,12.8,3.3C337.1,242.9,339,243.8,340.8,244.8z M248.1,229.6c0.3-0.2,0.7-0.6,0.1-0.7c-13.5-2.7-26.6-0.3-40,1.8
		c1.2-6.7,3-14.3,6.7-20.2c7.5,4.4,17.1,6.4,26.6,7.3c7.7,11,17.4,19.2,28.6,26.5c11.2,7.3,22.7,14.2,29.6,26.1
		c6.2,10.7,7.7,23.4,8.6,35.5c0.5,7.4,0.3,14.5-0.8,21.6c-2-8.8-4.5-17.5-8.2-25.8c-5.5-12.2-13.8-22.7-24-31.3
		c-10.9-9.1-24-15.1-37.8-18.6c-1.3-0.3-2.6-0.6-3.9-0.9c-1.9-0.4-0.6-2.4-0.2-3.6c1.1-2.8,2.8-5.4,4.6-7.8
		C240.7,235.6,244.3,232.3,248.1,229.6z M265.6,218.2c0,0.7,0.1,1.4,0.2,2.1c1.1,5.4,6.1,10.2,10.1,13.7c4.5,4,9.7,7.3,15.1,10.1
		c0.9,0.5,3.1-0.8,2-1.4c-7.5-3.9-14.7-8.8-20.1-15.3c-2.6-3.1-4.9-6.6-4.7-10.8c0.3-6.4,7.6-3.9,9.5,0.1c0.3,0.6,0.9,0.6,1.5,0.5
		c3.6-0.7,7.3-1.2,10.4-3c0.3,0.1,0.7,0.1,1.1,0c15.8-3.2,25.9,14.2,28.4,27.3c1.3,6.5-2.3,13.7-5,19.4c-2.4,5-5.3,9.8-8.2,14.5
		c0-0.1-0.1-0.2-0.1-0.4c-5-12.1-14.6-20.1-25.3-27.2c-11-7.3-22.1-14.2-30.8-24.4c-1.4-1.7-2.8-3.5-4.1-5.3
		C252.8,218.5,259.8,218.4,265.6,218.2z M307.1,278.8c3.9-6.5,7.9-12.9,11.1-19.8c0.7-1.5,1.3-3,1.9-4.5c-0.1,15.6-4,31.1-8.8,46
		C310.7,293.1,309.4,285.7,307.1,278.8z M326.9,225.6c-1.7,3.6-3.7,6.9-5.6,10.4c-3.8-13.2-14.3-25.7-28.7-24.3
		c0.1-0.1,0.2-0.2,0.2-0.2c2.5-2.7,3.2-6.6,2.3-10.1c-0.1-0.2-0.1-0.4-0.2-0.6c5.7,0.3,11.5,1.4,17.1,2.4c7,1.4,14,3,20.7,5.4
		C331.5,214.5,329.6,220.2,326.9,225.6z M197.5,159.6c-10.4-3.4-20.7-10.6-22.8-21.9c-1.1-5.9-0.5-12.2,0.1-18.2
		c0.7-6.5,1.7-13,2.5-19.4c1.5-12-0.4-24.2,2.7-36c2.7-10.7,8.1-20.4,16.6-27.5c9.3-7.7,21.1-12,33.2-11.9c7.4,0.1,14.6,2,21.3,5
		c5.9,2.7,11.6,4.8,18,6.2c5.6,1.2,11.3,2.2,16.7,4.2c5.2,2,9.3,5.6,12.4,10.1c-11.1-0.7-22.6,1.5-33.5,2.7
		c-13.5,1.5-30,3.1-40.3-7.7c-1.2-1.3-5.1,0.3-3.7,1.8c14.7,15.4,39.8,9.1,58.4,7c10.4-1.1,21.5-2,31.5,1.8
		c10.2,3.9,17.5,13.9,20.2,24.2c5.6,21.1-8.5,44.2-28.6,51c1-0.4,1.9-0.9,2.9-1.4c6.6-3.6,11.4-9.6,14.1-16.5
		c5.6-13.9,3.2-31.8-7.8-42.4c-4.8-4.6-10.7-6.9-17.2-7.7c-7.6-0.9-15.4-0.9-23-1.1c-9.5-0.2-18.9-0.4-28.4-1.1
		c-7.8-0.6-16-1.3-23.4-3.9c-4.6-1.6-9.5-4.8-7.7-10.3c0.3-0.9-3-0.5-3.3,0.5c-1.2,3.5-0.1,6.1,2.1,8.1c0,0.1,0,0.1-0.1,0.2
		c-1.4,8-9.8,16.3-17.8,17.6c-1.7,0.3-2.7,2.5-0.4,2.1c8.8-1.5,18.4-9.1,21.1-18c6.6,3.5,17.6,4.3,22,4.8c17.6,1.8,35.3,1,53,2.2
		c6.6,0.5,12.5,1.7,17.9,5.9c6.2,4.7,9.9,11.9,11.6,19.4c3.3,14.7-1.8,33.5-16.4,40.2c-6.1,2.8-12.9,2.7-19.4,1.4c0,0,0,0-0.1,0
		c7.9-19,7.2-42.3-4.5-58.8c-0.7-1-4,0.2-3.1,1.4c1.4,1.9,2.6,3.9,3.6,6c-6.9-2.4-14.8-2.6-21.5,0.4c-9,3.9-11.8,13.8-9.7,22.9
		c0.3,1.4,3.7,0.5,3.4-0.9c-1.7-7.5-0.1-16.2,7.2-20c6.5-3.4,15.2-2.2,21.6,1c0.2,0.1,0.4,0.1,0.6,0.1c7.8,18.5,4.3,41.3-6.2,58.1
		c-5.2,8.4-13.4,16.7-23.7,17.6c-10.4,0.9-20.3-5.6-27.5-12.4c-8.1-7.6-14.4-17.3-18.9-27.4c-3.9-8.9-6.8-19-5.6-28.8
		c0.2-1.5-3.2-0.9-3.4,0.4c-1.3,10.8,2.3,24.2,8.9,36.4c-0.6,0.3-1,0.8-0.9,1.3c0.6,3.4,0.5,6.3-1.6,9.1c-0.4,0.6,0.1,1.1,0.7,1.2
		c2.8,0.5,3.1,3.1,2.9,5.5c-0.1,1.8,3.8,1,4-0.5c0.3-1.8,0.7-3.6,1.3-5.4c0.4-1-1.6-1.1-2.9-0.5c-0.5-0.5-1-0.8-1.7-1.1
		c0.8-1.3,1.2-2.7,1.4-4.1c5.6,8.8,12.8,16.6,20.7,21.7c0.9,3.1,1.6,6.2,2.1,9.4C218.5,163.8,207.7,162.9,197.5,159.6z M160.7,176.6
		c1-3.1,2.1-6.5,3.6-9.6c3.5,4.1,9.7,5.8,14.7,7.1c6.4,1.7,13.2,2.6,19.5,4.8c-7.6,1.7-15.1,4.2-22.2,6.3
		c-6.2,1.8-12.3,3.1-18.5,2.8C157.9,184.2,159.5,180.2,160.7,176.6z M186.8,190.4c-7,1.8-11.8,6-17.4,10.3c-4.4,3.3-9,5.4-14.4,6.4
		c-4.8,0.9-9.8,1.1-14.7,1.4c-8.2,0.5-16.5,1.6-23.8,5.5c0.4-7,2.3-13.7,4.4-20.4c1.3-4.3,3.2-8.8,3.8-13.3
		c7.2,2.7,14.2,6.2,21.6,8.4c7.9,2.4,16,2.2,24.1,0.4c18.9-4.1,39.2-15.5,58.5-6.8c0.1,0,0.1,0,0.2,0.1c-0.9,4.4-2.5,8.7-4.3,12.8
		c-3.5-1.2-6.5-3.2-7.9-6.3c0-0.1,0-0.1-0.1-0.2c-0.5-1.3-0.8-2.8-0.7-4.4c0-0.6-3.3-0.2-3.4,0.9c-0.1,1.2,0.1,2.3,0.3,3.3
		C204.2,188.4,195.4,188.2,186.8,190.4z M213,190.4c0.3,0,0.5,0,0.8-0.1c2.9,5.7,11.2,7.4,17.4,8.1c10.2,1.1,20.8,0,30.9-1.7
		c1.4-0.2,2.9-1.8,0.6-1.4c-9.3,1.5-18.8,2.4-28.2,1.7c-2.3-0.2-4.8-0.5-7.3-1.1c0.3-0.2,0.5-0.3,0.6-0.6c2.9-6.3,4.9-12.9,5.5-19.9
		c0.5-6.2-0.4-12.5-1.9-18.5c12.3,6.3,25.9,5.9,38.2-6.7c2.9-2.9,5.4-6.2,7.6-9.7c4.4,0.2,8.6,1.9,13,2c0.4,0,0.8-0.1,1.2-0.4
		c3.5,1,6.9,2.4,10,4.4c6.4,3.9,11.3,9.9,14.8,16.5c6.4,11.9,8.5,26.6,6.3,39.9c-2.8-0.7-5.7-1.3-8.5-1.8
		c-6.5-1.3-13.2-2.6-19.9-2.6c0,0-0.1,0-0.1,0c-0.4-0.8-0.8-1.4-1.3-2.1c0.1-0.1,0.1-0.1,0.1-0.2c4.1-9,20.1-17.3,12.6-28.9
		c-5.1-7.8-22,0.2-22.3-11.1c0-1.2-3.4-0.5-3.4,0.9c0.3,11,14.4,5.8,20.7,9.8c5.7,3.6,3,11.6-0.1,15.9c-3,4.1-7.2,7.3-9.8,11.6
		c-4.1-3.3-10.2-4.1-15.4-3c-9.6-8.1-8.8-22.7-8.7-34.1c0-0.7-3.4-0.2-3.4,0.9c0,12-0.8,27.2,9.9,35.2c0.5,0.3,1.6,0.1,2.4-0.3
		c6.6-1.5,13.7,1,16.5,7.3c0,0.1,0,0.1,0.1,0.1c0.2,0.5,0.4,1.1,0.6,1.6c0.8,2.9,0.2,6.1-1.6,8.4c-2.7,3.5-7.2,4.1-11.3,4.8
		c-1.8-3-5.6-5.3-9.2-4.5c-2.7,0.7-4.2,2.5-4.8,4.8c-20.8,0.6-56,0.7-61-25.3C207.6,190.3,210.4,190.4,213,190.4z M38.1,208.6
		c-2.1-2-4-4.4-5.9-6.6c-3.3-3.8-5.7-8.3-9.6-11.4c3.3-1.7,7.3,3,8.9,5.2c2,2.7,4.2,5,7.3,6.4c0.3,0.7,0.6,1.5,1,2.1
		c0.1,0.1,0.1,0.2,0.2,0.3c-0.1,0.1-0.3,0.2-0.3,0.4c-0.4,1.3-0.7,2.8-0.8,4.4C38.7,209.1,38.3,208.9,38.1,208.6z M43.2,239.3
		c0,10.2-0.4,20.5-0.8,30.7c-6.1,0.8-12.2,1-18.4,1c3.5-7.3,6.4-14.9,9.1-22.6c2-5.5,3.7-11.2,6-16.6c0.9,0.4,1.8,0.6,2.7,0.6
		C42.3,234.7,42.8,237,43.2,239.3C43.2,239.3,43.2,239.3,43.2,239.3z M52.1,261.6C52.1,261.5,52.1,261.4,52.1,261.6L52.1,261.6z
		 M53.4,220.3c2.7,4.3-0.3,8.8-4.1,11c-0.7,0.2-1.2,0.5-1.1,0.9c0.7,4.6,1.4,9.2,2,13.8c0.2,1.3,2.4,1.2,2,2.5
		c-0.3,1-1.3,2.8-0.6,3.7c0.6,0.7,1.1,1.4,1.7,2.1c0.2,0.2-0.5,0.9-0.8,1.4c-1.1,1.6-1.4,1.7-1,3.5c0.2,0.8,0.3,1.6,0.5,2.4
		c0,0-0.1,0.1-0.1,0.2c-0.3,0.3-0.5,0.6-0.8,0.9c-0.3,0.3-0.5,0.6-0.8,0.9c-1.2-8-2.3-16.1-3.8-24c0-0.1,0-0.2,0-0.4
		c0-0.3-0.1-0.5-0.2-0.6c-0.4-2.1-0.8-4.3-1.3-6.4c0.7-0.2,1.3-0.5,2-0.9c0.6-0.3,0.9-1.2,0.2-1.6c-0.8-0.5-1.7-0.1-2.4,0.3
		c-3.3,1.9-6.4-1.7-7.4-4.5c-1.1-3.1-0.1-6,2.2-7.8c0.5,1.9,1.1,3.8,2,5.3c0.5,0.9,3.6-0.4,3.4-0.9c-1-1.7-1.7-3.8-2.2-6
		C47,214.8,51.2,216.7,53.4,220.3z M45.7,210.5c-1-0.2-2.2-0.2-3.3-0.3c0-1.1,0.1-2.1,0.2-3.1c0.5,0.4,0.9,0.7,1.4,1.1
		c1.4,1,2.8,2,4.3,2.9C47.4,210.8,46.5,210.6,45.7,210.5z M181.4,318.8c0,0.1,0,0.2,0,0.3c-3.1,7.5-8.5,17-16.4,20.6
		c-4.9-10.5-6.8-21.8-9.7-32.9c-2.5-9.9-6.9-18.7-16.2-23.8c-1.2-0.7-4.2,1-2.6,1.9c9.2,5,13.2,13.7,15.6,23.5
		c2,7.9,3.6,15.8,6.1,23.4c-6.8,7.5-15,12.5-24.1,16.5c-6.9-9.9-13.6-19.9-19.3-30.5c-5.5-10.3-9.8-21.2-13.1-32.4
		c-4-13.5-6.3-27.4-9-41.3c-1-5.3-1.9-10.7-3.4-15.9c-1.4-5.1-4.4-8.7-9.7-10c-6-1.4-12.3-1.4-18.3-3c-1-0.3-2-0.6-2.9-0.9
		c-3.8-2-7.5-4-11-6.4c-1.7-1.2-3.5-2.5-4.7-4.2c-0.4-0.6-0.8-1.4-1.1-2.2c0-0.1,0-0.1-0.1-0.2c-0.7-2.1-1-4.4-1.5-6.3
		c-0.8-2.9-1.2-5.6-1.3-8.7c0-2.1,0.1-4.2,0.1-6.3c1.4,1.3,2.3,3.4,2.8,5.2c0,0.5,0,1,0,1.6c0,3,0.8,6,1.7,8.9c0.9,3,0.8,6.8,3.3,9
		c2.4,2.2,5.4,3.5,8.1,5.3c1.1,0.7,3.5-0.8,2.2-1.6c-2.3-1.5-4.7-2.7-6.9-4.3c-3.1-2.3-3.1-6.6-4.1-10.1c-1.4-4.9-1.4-9.7-1.4-14.7
		c1.1,0.8,1.7,2,2.1,3.4c-0.7,0.2-1.3,0.5-1.2,1.2c0.5,3,1.4,5.8,2.3,8.7c0.8,2.4,1,5,2.9,6.9c1.6,1.6,3.5,3,5.1,4.6
		c2.2,2.1,4.7,3.1,7.3,4.6c1,0.6,3.5-0.8,2.2-1.5c-2.4-1.4-4.9-2.2-6.9-4.3c-1.4-1.5-3.2-2.8-4.7-4.3c-2-1.8-2.3-4.4-3-6.9
		c-0.6-2.2-1.4-4.4-1.9-6.7c1.3,0.8,2.1,2.3,2.7,3.8c0.7,1.7,0.6,3.9,2.2,5.1c0.8,0.6,1.8,0.9,2.6,1.6c0.7,0.6,1.4,1.2,2.1,1.8
		c1.7,1.2,4,1.3,5.9,2.1c2.3,1,4.5,2,7,2.6c2.1,0.5,4.2,0.9,6.3,1.5c5.9,1.7,11,4.8,15.5,9c0.9,0.8,3.5-0.3,2.6-1.2
		c-4-3.8-8.5-6.8-13.7-8.7c-3-1.1-6.2-1.7-9.3-2.6c0-0.1-0.1-0.1-0.1-0.2c-1.8-2.2-3.3-4.9-5.9-6.4c-1.5-0.9-2.8-1.9-3.9-3.3
		c-0.1-0.2-2.5-4.3-1.1-4.2c3,0.2,6,2.4,8.3,4.2c2.8,2.2,5.6,4.1,8.9,5.6c5.4,2.4,10.7,4.4,14.9,8.8c3.6,3.8,6.3,7.6,7.6,12.8
		c1.5,6,2.7,12,4.4,17.9c2.1,7.4,5.2,14.6,8.7,21.5c7.1,14.1,16,27.2,22.4,41.6c0.5,1.2,3.3,0.4,2.8-0.8c-2.4-5.4-5.2-10.7-8.1-15.8
		c0.9-0.2,1.9-0.7,1.9-1.3c-0.4-4.7,2.8-7,6.2-9.5c3.4-2.5,6.2-5.6,9.4-8.4c6.6,8.3,13.3,16.5,19.3,25.3c3.6,5.2,6.9,10.6,9.6,16.3
		c1.1,2.3,2.1,4.8,2.9,7.4c-1.7,2.5-3.6,4.9-5.7,7c-1.4,1.4,1.9,1.3,2.7,0.5c1.3-1.3,2.5-2.8,3.7-4.3
		C181.4,316.1,181.5,317.5,181.4,318.8z M159.5,405.2c9.8-11.6,20.4-22.6,32.1-32.3c12-9.8,26-18.7,41.6-21c0,1.7,0.1,3.4,0.1,5.1
		c0,1.8,3.4,1.3,3.4-0.2c0-16.9-1.5-34.1-7.3-50.1c-5.7-16-15.9-29.6-29.3-39.9c-1.1-0.8-3.5,0.4-2.9,1.6c-0.1,0.1-0.2,0.2-0.2,0.4
		c-1.4,9-4.4,17.7-7.9,26.1c-1.8,4.2-3.7,8.5-6.1,12.6c-2.4-6.9-6.9-13.5-10.6-19.2c-5-7.6-10.6-14.7-16.2-21.8
		c0.1,0,0.2-0.1,0.3-0.2c6.4-4.8,12.4-10.1,16.2-17.3c3.6-6.9,4.8-15,6.1-22.6c2-11.3,8.6-33,23.7-29.7c2.2,5.3,5.8,9.4,10.3,12.4
		c-4.6,6.3-6.7,15-8,22.6c-0.1,0.6,1,0.4,1.3,0.3c13-1.9,25.6-4.4,38.7-2c-7.1,5.2-14,12.5-15.9,21.3c0,0.2,0.1,0.3,0.3,0.3
		c21.6,4.4,41,14.9,55.2,32.1c12.2,14.8,17.4,33.2,21.2,51.7c0,0.1,0.1,0.1,0.1,0.1c-0.9,3.5-2,7-3.3,10.4c-0.6,1.5-1.2,3-1.8,4.5
		c0,0,0,0,0,0.1c0,0.1,0,0.1-0.1,0.2c-0.3,0.7-0.6,1.3-0.8,2c0,0.1,0,0.2,0,0.2c-6.2,16.3-15.2,31.7-24.6,46.3
		c-9.7,15.1-20.2,29.9-32.1,43.3c-15.5-4.4-31.2-8-46.5-13.3c-8.7-3-17.4-6.3-25.4-11C166.4,415.7,159.7,411.4,159.5,405.2z
		 M283.6,620.6c-1.5-10.1-2.3-20.4-3.7-30.6c2.7-0.4,5.4-0.9,8.2-1.5c2.2-0.5,4.4-1,6.6-1.4C291.1,598.3,286.6,609.3,283.6,620.6z
		 M318.8,516.7c-4.6,23-10.4,45.8-16.6,68.4c-7.8,0.6-15.3,3.1-23,3.9c-9.7,1.1-19.2,2.2-28.9,1.4c-8.7-0.7-16.6-3.8-24.4-7.6
		c-7.2-3.5-14.3-7.4-20.9-11.8c-10.5-21.2-15.1-45.6-17.4-69c-2.2-23.4-2.2-48.8,5.6-71.3c16.1,5.6,32.7,9.4,49.1,14.1
		c0.8,0.2,3-0.7,3-1.3c0.1-0.1,0.2-0.1,0.3-0.2c11.4-12.8,21.6-26.8,30.9-41.2c2,9.1,4.3,18.2,7.4,27c3.6,9.8,8.4,19,14.3,27.5
		c0.1,0.1,0.1,0.2,0.2,0.2c0.1,0.2,0.5,0.4,1.3,0.4c7.9-0.6,15.6-3.7,22.6-7.1c1.6-0.8,3.2-1.6,4.8-2.4
		C326.8,470.9,323.3,494,318.8,516.7z M329.8,306.5c-1.1-0.7-3.3,0.4-3,1.4c0,0.1-0.1,0.2-0.1,0.2c-2.8,18.7-7.3,37.2-9.8,56
		c0,0.3,0.1,0.6,0.4,0.7c-0.3,0.2-0.4,0.3-0.3,0.5c9.9,23.2,15.7,47.9,24.6,71.4c-6,4.1-12.3,7.9-18.7,11.1
		c-6.7,3.4-14,6.6-21.6,7.5c0-0.1-0.1-0.1-0.1-0.2c-5.8-8.4-10.5-17.4-14-27c-3.6-9.7-5.9-19.8-8.1-29.9c0-0.1-0.1-0.2-0.1-0.3
		c9.7-15.1,18.8-31,24.9-47.9c0,0,0,0,0,0c4.5-10.7,7.4-21.7,7.9-33.3c0,0,0,0,0,0c5-11.3,13.2-21,19.8-31.4
		c4.6-7.3,8.8-15,11.7-23.1c1.9,2,3.5,4.3,5.2,6.4c3.1,3.9,6.1,7.8,9.1,11.7c8,10.3,15.1,21.2,22.6,31.9c0.1,0.1,0.2,0.2,0.3,0.2
		c-5.4,11.4-13.5,21.8-22.6,30.2c-3.3-6.5-7.7-12.6-12-18.4C341.3,318.1,336.3,310.9,329.8,306.5z M357,346.1c0.5-0.1,1-0.2,1.4-0.5
		c0.1,0,0.2-0.1,0.2-0.2c12.6-11,23.6-25.7,28.9-41.8c3.5,4.1,7.8,7.4,11.8,11.1c0,0,0.1,0,0.1,0.1c-2.7,19.4-18.5,33-32.8,44.9
		C363.9,354.7,360.8,350,357,346.1z M547.1,383.2c-1.1-0.6-2.2-1.7-3.4-2.1c-1.3-0.5-2.7-1-4-1.5c-4-1.6-8-3.1-12.1-4.4
		c-1.3-0.4-4,1.5-2,2.1c4.1,1.2,8.1,2.8,12.1,4.4c1.3,0.5,2.7,1.1,4,1.5c1.2,0.5,2.6,1.8,3.8,2.4c0.6,0.3,1.2,0.6,1.8,0.9
		c0.1,0.1,0.3,0.3,0.6,0.3c0,0,0.1,0,0.1,0c3.9,2,7.9,3.6,12,5.2c-1.9,1.5-5.7,0.9-7.9,0.4c-1.9-0.4-3.8-1.3-5.6-2.1
		c-3-1.4-5.8-3.1-9.1-3.9c-3.8-0.9-7.7-1.6-11.5-2.3c-1.4-0.3-3-0.8-4.4-0.5c-3,0.8-5,2.1-8.2,1.4c-0.3-0.1-0.5-0.3-0.8-0.4
		c-1.3-0.7-4.2,1-2.6,1.9c4,2.2,8.5,3.4,12.8,5c3.1,1.1,8,2.9,9.1,6.4c-2.7-1.2-5.7-1.8-8.5-2.4c-5.5-1.2-11-1.9-16.6-2.6
		c-4.4-0.5-8.9-0.9-13.2-1.8c-6.8-1.3-12.7-5.3-19.5-6.7c-8.2-1.7-16.5-2.8-24.7-4.5c-11.1-2.2-22.2-4.5-33.3-6.9
		c-9-2-18.1-4-27.1-6.1c-3.3-0.8-6.6-1.6-9.8-2.4c-1.2-0.3-2.4-0.6-3.6-1c-1.8-0.5-3.5-3-4.8-4.6c9-7.5,18.2-15.7,24.6-25.5
		c0.2,0.2,0.4,0.5,0.6,0.7c0.9,1,3.6,1.5,4.8,2c4,1.7,8,3.5,11.9,5.3c7.4,3.5,14.7,7.2,22,11c11.9,6.2,23.6,12.9,36,18.1
		c5.1,2.2,10,3.3,15.6,3.4c5.1,0.1,10.7-0.9,15.7-2c5.6-1.3,10.9-3.5,16.5-4.6c3.5-0.7,6.7,1.6,9.8,3c5,2.4,9.8,4.9,14.8,7.2
		c2.3,1,4.6,1.8,6.9,2.7c3.9,1.6,7.7,3.4,11.7,4.6c-3.3,1.8-8.7,0.2-12-0.7c0,0,0,0,0,0C548.9,384.2,548,383.7,547.1,383.2z"/>
</g>
<g>
	<g>
		<path fill="#FCB021" d="M45.4,267.8c0-6.6-0.2-13.2-0.2-19.8c0-1.5-8.7-0.2-8.7,2.3c0,6.6,0.2,13.2,0.2,19.8
			C36.7,271.6,45.4,270.3,45.4,267.8L45.4,267.8z"/>
	</g>
</g>
<g>
	<g>
		<path fill="#FCB021" d="M27.1,272.4c4.9-0.1,9.6,0.6,14.1-1.7c1.5-0.7,3.4-2.6,2.1-4.4c-1.3-1.7-4.2-1.4-5.9-0.6
			c-2.7,1.3-6.6,0.4-9.4,0.5c-1.9,0-4.5,1.4-4.8,3.4C22.8,271.9,25.4,272.5,27.1,272.4L27.1,272.4z"/>
	</g>
</g>
<g>
	<g>
		<path fill="#FCB021" d="M282.4,349c-0.5,1.5-0.6,3-1.1,4.4c-0.5,1.6,1.7,2.3,2.8,2.3c1.8,0.1,4.9-0.6,5.7-2.5
			c0.2-0.4,0.4-0.9,0.6-1.3c0.1-0.1,0.1-0.3,0.2-0.4c-0.1,0.1-1.2,1.1-0.8,0.8c0.8-0.5,1.5-1.1,2.2-1.7c-2.6,0.1-5.3,0.1-7.9,0.2
			c0.3,0.5,0.5,1.1,0.7,1.6c0.1,0.3,0.2,0.6,0.2,0.9c0,0.1,0.1,0.9,0.1,0.3c0,0.1,0,0.3-0.1,0.4c0-0.1,0.1-0.2,0.1-0.3
			c-0.2,0.3-0.1,0.2,0.2-0.2c0.7-0.7,1.5-1,2.4-1.1c-0.4,0.1-0.7,0.1-1.1,0.1c1.3,0.8,2.6,1.5,3.9,2.3c-0.1-1.9-0.5-3.4-1.1-5.1
			c-0.7-1.9-3.5-1.8-5-1.4c-1.3,0.4-4.3,1.8-3.7,3.7c0.4,1.2,1,2.4,1.1,3.7c0.1,2.1,2.1,2.3,3.9,2.3c2.8-0.1,6.2-1.1,7.7-3.7
			c1-1.8,0.2-4-0.6-5.7c-1.4-2.9-6.1-1.6-7.9,0.2c-0.2,0.2-0.3,0.3-0.5,0.4c0.8-0.7,0.3-0.3,0.1-0.1c-0.4,0.3-0.9,0.6-1.3,1
			c-0.8,0.8-1.2,1.7-1.7,2.7c2.8-0.1,5.6-0.1,8.5-0.2c0.5-1.5,0.6-3,1.1-4.4c0.6-2-2.7-2.4-3.9-2.3C285.3,346,283,347,282.4,349
			L282.4,349z"/>
	</g>
</g>
<g>
	<g>
		<path fill="#FCB021" d="M259.9,379.6c5.2,0.6,4.5,9.3,4.9,13.1c0.3,3,9,1.1,8.7-2.3c-0.6-6.1-0.4-14.6-8.3-15.6
			c-2.1-0.3-4.5,0.1-6.1,1.6C257.8,377.6,258,379.4,259.9,379.6L259.9,379.6z"/>
	</g>
</g>
<g>
	<g>
		<path fill="#FCB021" d="M307.1,537.3c-1,4.8-1.9,9.6-2.9,14.4c-0.9,4.3-2.4,8.5-3.3,12.9c-0.8,3.9-1.2,7.9-2.4,11.7
			c-0.4,1.3-0.9,2.7-1.8,3.8c0.5-0.5-0.6,0.5-0.8,0.6c0.6-0.4-0.8,0.4-0.9,0.5c-1.6,0.8-4.6,1.4-6.9,1.8c-3.2,0.4-6.5,0.6-9.8,0.7
			c-5.9,0.1-11.8-0.2-17.7-0.2c-2,0-4.5,1.5-4.8,3.6c-0.2,2.3,2.3,3,4.1,3c6.3,0,12.6,0.4,18.9,0.2c6.9-0.2,14.2-0.8,20.5-3.8
			c7.5-3.7,8.5-11.9,9.9-19.3c0.8-4.8,2.3-9.3,3.4-14c1.2-5.4,2.2-10.8,3.3-16.2C316.9,532.2,308,533.2,307.1,537.3L307.1,537.3z"/>
	</g>
</g>
</svg>
