<?xml version="1.0" encoding="utf-8"?>
<!-- Generator: Adobe Illustrator 18.0.0, SVG Export Plug-In . SVG Version: 6.00 Build 0)  -->
<!DOCTYPE svg PUBLIC "-//W3C//DTD SVG 1.1//EN" "http://www.w3.org/Graphics/SVG/1.1/DTD/svg11.dtd">
<svg version="1.1" id="Layer_1" xmlns="http://www.w3.org/2000/svg" xmlns:xlink="http://www.w3.org/1999/xlink" x="0px" y="0px"
	 viewBox="0 0 23 26" enable-background="new 0 0 23 26" xml:space="preserve">
<path fill="#ADADAD" d="M20.7,11.9c-0.3,0-0.6,0.3-0.6,0.6v10h-6.2v-6.3c0-0.3-0.3-0.6-0.6-0.6H8.7c-0.3,0-0.6,0.3-0.6,0.6v5
	c0,0.3,0.3,0.6,0.6,0.6c0.3,0,0.6-0.3,0.6-0.6v-4.4h3.4v5.7H1.9V8.7l9.1-7l9.3,7.2c0.3,0.2,0.6,0.2,0.8-0.1C21.3,8.6,21.3,8.2,21,8
	l-9.7-7.5c-0.2-0.2-0.5-0.2-0.7,0L1,8C0.8,8.1,0.8,8.3,0.8,8.5V23c0,0.3,0.3,0.6,0.6,0.6h19.3c0.3,0,0.6-0.3,0.6-0.6V12.5
	C21.2,12.2,21,11.9,20.7,11.9z"/>
</svg>
