<?xml version="1.0" encoding="utf-8"?>
<!-- Generator: Adobe Illustrator 18.0.0, SVG Export Plug-In . SVG Version: 6.00 Build 0)  -->
<!DOCTYPE svg PUBLIC "-//W3C//DTD SVG 1.1//EN" "http://www.w3.org/Graphics/SVG/1.1/DTD/svg11.dtd">
<svg version="1.1" id="Layer_1" xmlns="http://www.w3.org/2000/svg" xmlns:xlink="http://www.w3.org/1999/xlink" x="0px" y="0px"
	 viewBox="0 0 20 20" enable-background="new 0 0 20 20" xml:space="preserve">
<g>
	<g>
		<path fill="#7F7F7F" d="M7.9,8.4l-0.5,1.9c0,0.1,0,0.3,0.1,0.3c0.1,0.1,0.2,0.1,0.3,0.1c0,0,0.1,0,0.1,0l1.9-0.5
			c0.1,0,0.1,0,0.2-0.1l5.7-5.7c0,0,0,0,0,0c0,0,0,0,0,0l1.1-1.2c0.1-0.1,0.1-0.4,0-0.5l-1.4-1.4c-0.1-0.1-0.2-0.1-0.3-0.1
			c-0.1,0-0.2,0-0.3,0.1l-1.1,1.2c0,0,0,0,0,0c0,0,0,0,0,0L8,8.2C8,8.2,7.9,8.3,7.9,8.4z M15.1,2.1L16,3l-0.6,0.6l-0.9-0.9L15.1,2.1
			z M8.6,8.6l5.3-5.4l0.9,0.9L9.5,9.5L8.3,9.8L8.6,8.6z M16.5,5.1c-0.2,0-0.4,0.2-0.4,0.4v11.6H4.9V3.3h6.6c0.2,0,0.4-0.2,0.4-0.4
			c0-0.2-0.2-0.4-0.4-0.4h-7c-0.2,0-0.4,0.2-0.4,0.4v14.5c0,0.2,0.2,0.4,0.4,0.4h11.9c0.2,0,0.4-0.2,0.4-0.4v-12
			C16.8,5.3,16.7,5.1,16.5,5.1z"/>
	</g>
</g>
</svg>
