<?xml version="1.0" encoding="utf-8"?>
<!-- Generator: Adobe Illustrator 18.0.0, SVG Export Plug-In . SVG Version: 6.00 Build 0)  -->
<!DOCTYPE svg PUBLIC "-//W3C//DTD SVG 1.1//EN" "http://www.w3.org/Graphics/SVG/1.1/DTD/svg11.dtd">
<svg version="1.1" id="Layer_1" xmlns="http://www.w3.org/2000/svg" xmlns:xlink="http://www.w3.org/1999/xlink" x="0px" y="0px"
	 viewBox="0 0 23 26" enable-background="new 0 0 23 26" xml:space="preserve">
<g>
	<g>
		<path fill="#ADADAD" d="M11.5,1.4C6.4,1.4,2,4.9,1.1,9.9c0,0.3-0.1,0.6-0.1,0.8c0,0.4-0.1,0.8-0.1,1.3c0,2.6,0.9,5,2.6,6.9
			c-0.5,0.6-1.2,1.1-1.9,1.4c-0.1,0-0.2,0.1-0.2,0.2c0,0,0,0,0,0c0,0-0.1,0.1-0.1,0.1c0,0,0,0.1,0,0.1c0,0,0,0,0,0.1
			c-0.1,0.3,0,0.6,0.3,0.8c1,0.6,2.2,0.9,3.4,0.9c1,0,1.9-0.2,2.7-0.6c1.3,0.5,2.6,0.7,3.9,0.7c5.9,0,10.6-4.8,10.6-10.6
			C22.1,6.1,17.3,1.4,11.5,1.4z M11.5,21.3c-1.3,0-2.4-0.3-3.6-0.7c-0.2-0.1-0.4-0.1-0.6,0c0,0,0,0,0,0c-0.8,0.4-1.6,0.6-2.4,0.6
			c-0.5,0-1-0.1-1.5-0.2c0.5-0.4,1-0.9,1.4-1.4c0,0,0,0,0,0C4.9,19.3,5,19.2,5,19.1C5,19,5,19,5,18.9c0,0,0,0,0,0
			c0-0.2-0.1-0.5-0.3-0.6c0,0,0,0,0,0c-1.6-1.7-2.5-4-2.5-6.3c0-0.4,0-0.8,0.1-1.1c0-0.2,0-0.5,0.1-0.7c0.8-4.3,4.7-7.4,9.1-7.4
			c5.1,0,9.3,4.1,9.3,9.3C20.8,17.1,16.6,21.3,11.5,21.3z M11.5,10.7c-0.7,0-1.3,0.6-1.3,1.2s0.6,1.2,1.3,1.2s1.3-0.6,1.3-1.2
			S12.2,10.7,11.5,10.7z M16.3,10.7c-0.7,0-1.3,0.6-1.3,1.2s0.6,1.2,1.3,1.2c0.7,0,1.3-0.6,1.3-1.2S17,10.7,16.3,10.7z M6.7,10.7
			c-0.7,0-1.3,0.6-1.3,1.2s0.6,1.2,1.3,1.2c0.7,0,1.3-0.6,1.3-1.2S7.3,10.7,6.7,10.7z"/>
	</g>
</g>
</svg>
