<?xml version="1.0" encoding="utf-8"?>
<!-- Generator: Adobe Illustrator 18.0.0, SVG Export Plug-In . SVG Version: 6.00 Build 0)  -->
<!DOCTYPE svg PUBLIC "-//W3C//DTD SVG 1.1//EN" "http://www.w3.org/Graphics/SVG/1.1/DTD/svg11.dtd">
<svg id="Layer_1" xmlns="http://www.w3.org/2000/svg" xmlns:xlink="http://www.w3.org/1999/xlink" x="0px" y="0px"
	 viewBox="0 0 12 22" enable-background="new 0 0 12 22" xml:space="preserve">
<g>
	<g>
		<path fill="#F1A91F" d="M10.8,4.9c-0.5-2-2.3-3.3-4.3-3.8C5,0.7,3.3,1.1,2,2C0.8,2.9,0,4.2,0,5.8c0,0.7,0.5,1.1,1.3,1.1
			c0.8,0,1.3-0.4,1.3-1.1c0-0.7,0.3-1.6,1-2C4.3,3.3,5,3.1,6,3.3c1.3,0.2,2,1.1,2.3,2c0.3,1.1,0,2-1,2.7c-2,1.3-3,3.3-3,5.3
			c0,0.7,0.5,1.1,1.3,1.1c0.8,0,1.3-0.4,1-1.1c0-1.3,1-2.7,2.3-3.5C10.6,8.4,11.3,6.7,10.8,4.9z M6.3,19.1c-0.5-0.4-1.3-0.4-1.8,0
			c-0.3,0.2-0.3,0.7-0.3,0.9c0,0.2,0,0.4,0.3,0.7c0.3,0.2,0.8,0.4,1,0.4c0.3,0,0.8-0.2,0.8-0.4c0.3,0,0.5-0.4,0.5-0.7
			C6.8,19.5,6.5,19.3,6.3,19.1z"/>
	</g>
</g>
</svg>
