<?xml version="1.0" encoding="utf-8"?>
<!-- Generator: Adobe Illustrator 18.0.0, SVG Export Plug-In . SVG Version: 6.00 Build 0)  -->
<!DOCTYPE svg PUBLIC "-//W3C//DTD SVG 1.1//EN" "http://www.w3.org/Graphics/SVG/1.1/DTD/svg11.dtd">
<svg id="Layer_1">
<g>
	<g>
		<path fill="#FCB020" d="M11.8,4.9c-0.5-2-2.2-3.3-4.2-3.7c-1.5-0.4-3.2,0-4.5,0.9c-1.2,0.9-2,2.2-2,3.7c0,0.7,0.5,1.1,1.2,1.1
			c0.7,0,1.2-0.4,1.2-1.1c0-0.7,0.2-1.5,1-2c0.7-0.4,1.5-0.7,2.5-0.4c1.2,0.2,2,1.1,2.2,2c0.2,1.1,0,2-1,2.6c-2,1.3-3,3.3-3,5.3
			c0,0.7,0.5,1.1,1.2,1.1c0.7,0,1.2-0.4,1-1.1c0-1.3,1-2.6,2.2-3.5C11.6,8.4,12.3,6.7,11.8,4.9z M7.4,19c-0.5-0.4-1.2-0.4-1.7,0
			c-0.2,0.2-0.2,0.7-0.2,0.9c0,0.2,0,0.4,0.2,0.7c0.2,0.2,0.7,0.4,1,0.4c0.2,0,0.7-0.2,0.7-0.4c0.2,0,0.5-0.4,0.5-0.7
			C7.9,19.4,7.6,19.2,7.4,19z"/>
	</g>
</g>
</svg>
