<?xml version="1.0" encoding="utf-8"?>
<!-- Generator: Adobe Illustrator 18.0.0, SVG Export Plug-In . SVG Version: 6.00 Build 0)  -->
<!DOCTYPE svg PUBLIC "-//W3C//DTD SVG 1.1//EN" "http://www.w3.org/Graphics/SVG/1.1/DTD/svg11.dtd">
<svg version="1.1" id="Layer_1" xmlns="http://www.w3.org/2000/svg" xmlns:xlink="http://www.w3.org/1999/xlink" x="0px" y="0px"
	 viewBox="0 0 20 20" enable-background="new 0 0 20 20" xml:space="preserve">
<g>
	<g>
		<path fill="#757576" d="M9.1,13.8c-0.1,0.1-0.1,0.3,0,0.5c0.1,0.1,0.2,0.1,0.2,0.1c0.1,0,0.2,0,0.2-0.1l4.1-4c0,0,0.1-0.1,0.1-0.1
			c0-0.1,0-0.2,0-0.3c0,0,0-0.1-0.1-0.1l-4.1-4c-0.1-0.1-0.3-0.1-0.5,0C9,5.9,9,6.1,9.1,6.2l3.5,3.5H2.2C2,9.7,1.9,9.8,1.9,10
			c0,0.2,0.2,0.3,0.3,0.3h10.3L9.1,13.8z M17.8,0.6H5.3c-0.2,0-0.3,0.1-0.3,0.3v7c0,0.2,0.2,0.3,0.3,0.3S5.6,8.2,5.6,8V1.3h11.8
			v17.4H5.6V12c0-0.2-0.2-0.3-0.3-0.3S4.9,11.8,4.9,12v7c0,0.2,0.2,0.3,0.3,0.3h12.5c0.2,0,0.3-0.2,0.3-0.3V0.9
			C18.1,0.8,18,0.6,17.8,0.6z"/>
	</g>
</g>
</svg>
