<?xml version="1.0" encoding="utf-8"?>
<!-- Generator: Adobe Illustrator 18.0.0, SVG Export Plug-In . SVG Version: 6.00 Build 0)  -->
<!DOCTYPE svg PUBLIC "-//W3C//DTD SVG 1.1//EN" "http://www.w3.org/Graphics/SVG/1.1/DTD/svg11.dtd">
<svg version="1.1" id="Layer_1" xmlns="http://www.w3.org/2000/svg" xmlns:xlink="http://www.w3.org/1999/xlink" x="0px" y="0px"
	 viewBox="0 0 103 90" enable-background="new 0 0 103 90" xml:space="preserve">
<path fill="#7E7E7E" d="M67.5,49.3c-2.3-1.3-4.7-2.3-7.2-3c0,0-0.1,0-0.1,0c-5-1.3-10.2-1.3-15.2,0c-0.1,0-0.1,0-0.2,0
	c-2.5,0.7-4.9,1.7-7.2,3c-2.2,1.3-3,4.2-1.7,6.4c0.6,1.1,1.6,1.9,2.8,2.2c0.4,0.1,0.8,0.2,1.2,0.2c0.8,0,1.6-0.2,2.3-0.6
	c0,0,0,0,0,0c1.5-0.9,3.2-1.6,4.9-2c0,0,0.1,0,0.1,0c1.7-0.4,3.4-0.7,5.2-0.7c1.8,0,3.5,0.2,5.2,0.7c0,0,0.1,0,0.1,0
	c1.7,0.5,3.4,1.2,4.9,2c2.2,1.3,5.1,0.5,6.4-1.7c0.6-1.1,0.8-2.4,0.5-3.6S68.6,50,67.5,49.3z M66.5,54.2c-0.4,0.7-1.4,1-2.1,0.6
	c-1.7-1-3.6-1.8-5.6-2.3c0,0-0.1,0-0.1,0c-2-0.5-4-0.8-6.1-0.8c-2,0-4.1,0.3-6,0.8c0,0,0,0-0.1,0c0,0,0,0-0.1,0
	c-2,0.5-3.9,1.3-5.7,2.4c-0.4,0.2-0.8,0.3-1.2,0.2c-0.4-0.1-0.7-0.4-0.9-0.7c-0.4-0.7-0.2-1.7,0.6-2.1c2-1.2,4.2-2.1,6.4-2.7
	c0,0,0,0,0.1,0c0,0,0,0,0.1,0c2.2-0.6,4.5-0.9,6.8-0.9c2.3,0,4.6,0.3,6.9,0.9c0,0,0.1,0,0.1,0c2.2,0.6,4.3,1.5,6.3,2.7
	c0.4,0.2,0.6,0.5,0.7,0.9C66.8,53.4,66.7,53.8,66.5,54.2z M52.6,69.5c-3.1,0-5.6,2.5-5.6,5.7c0,3.1,2.5,5.7,5.6,5.7
	c3.1,0,5.6-2.5,5.6-5.7C58.3,72,55.7,69.5,52.6,69.5z M52.6,77.7c-1.4,0-2.5-1.1-2.5-2.5c0-1.4,1.1-2.5,2.5-2.5
	c1.4,0,2.5,1.1,2.5,2.5C55.1,76.5,54,77.7,52.6,77.7z M74.7,16c-1.2-2.9-2.9-5.5-5.2-7.7c-2.2-2.2-4.8-4-7.7-5.2
	c-5.8-2.4-12.3-2.4-18.1,0c-2.9,1.2-5.5,2.9-7.7,5.2c-2.2,2.2-4,4.8-5.2,7.7c-1.2,2.9-1.8,6-1.8,9.1c0,2,0.8,4,2.2,5.4
	c0.1,0.1,0.1,0.1,0.2,0.2c1.4,1.3,3.3,2.1,5.2,2.1c2,0,3.9-0.8,5.4-2.2c1.4-1.4,2.2-3.4,2.2-5.4c0-1.1,0.2-2.2,0.6-3.2
	c0.4-1,1.1-2,1.9-2.8c0.8-0.8,1.7-1.4,2.8-1.9c2-0.9,4.4-0.9,6.4,0c1,0.4,2,1.1,2.8,1.9c0.8,0.8,1.4,1.7,1.9,2.8
	c0.4,1,0.6,2.1,0.6,3.2v6.6c0,1.5-0.6,2.9-1.6,3.9c-1,1.1-2.4,1.6-3.9,1.6H39.6c-2.9,0-5.6,1.1-7.7,3.2c-2.1,2.1-3.2,4.8-3.2,7.7
	v28.8c0,2.9,1.1,5.7,3.2,7.7c2.1,2.1,4.8,3.2,7.7,3.2h26c2.9,0,5.6-1.1,7.7-3.2c2.1-2.1,3.2-4.8,3.2-7.7V25.1
	C76.5,22,75.9,18.9,74.7,16z M73.4,77.1c0,2.1-0.8,4-2.3,5.5c-1.5,1.5-3.4,2.3-5.5,2.3h-26c-2.1,0-4-0.8-5.5-2.3
	c-1.5-1.5-2.3-3.4-2.3-5.5V48.2c0-2.1,0.8-4,2.3-5.5c1.5-1.5,3.4-2.3,5.5-2.3h16.1c2.3,0,4.5-0.9,6.1-2.6c1.6-1.7,2.5-3.8,2.5-6.2
	v-6.6c0-1.5-0.3-3-0.9-4.5c-0.6-1.4-1.4-2.7-2.5-3.8c-1.1-1.1-2.4-2-3.8-2.5c-2.8-1.2-6-1.2-8.9,0c-1.4,0.6-2.7,1.4-3.8,2.5
	c-1.1,1.1-2,2.4-2.5,3.8c-0.6,1.4-0.9,2.9-0.9,4.5c0,1.2-0.5,2.3-1.3,3.2c-0.8,0.8-2,1.3-3.2,1.3c-1.1,0-2.2-0.4-3.1-1.2
	c0,0,0,0-0.1-0.1l0,0c-0.8-0.8-1.3-2-1.3-3.2c0-2.7,0.5-5.4,1.6-7.9c1-2.5,2.5-4.8,4.5-6.7c1.9-1.9,4.2-3.4,6.7-4.5
	C50,3.9,55.6,3.9,60.6,6c2.5,1,4.8,2.6,6.7,4.5c1.9,1.9,3.4,4.2,4.5,6.7c1,2.5,1.6,5.2,1.6,7.9V77.1L73.4,77.1z M61.7,59.5
	c-1.4-0.8-2.9-1.4-4.4-1.8c-3.1-0.8-6.3-0.8-9.4,0c-1.5,0.4-3,1-4.4,1.8c-2.2,1.3-3,4.2-1.7,6.4c1.3,2.2,4.1,3,6.4,1.7c0,0,0,0,0,0
	c0.7-0.4,1.4-0.7,2.1-0.9c0.7-0.2,1.5-0.3,2.3-0.3c0.8,0,1.6,0.1,2.3,0.3c0.7,0.2,1.5,0.5,2.1,0.9c0.7,0.4,1.5,0.6,2.3,0.6
	c1.6,0,3.2-0.8,4.1-2.4C64.7,63.7,63.9,60.8,61.7,59.5z M60.7,64.3c-0.4,0.7-1.4,1-2.1,0.6c-0.9-0.5-1.9-0.9-2.9-1.2
	c-1-0.3-2-0.4-3.1-0.4c-1.1,0-2.1,0.1-3.1,0.4c-1,0.3-2,0.7-2.9,1.2c-0.7,0.4-1.7,0.2-2.1-0.6c-0.4-0.7-0.2-1.7,0.6-2.1
	c1.1-0.7,2.4-1.2,3.6-1.5c2.5-0.7,5.2-0.7,7.7,0c1.3,0.3,2.5,0.8,3.6,1.5C60.9,62.7,61.1,63.6,60.7,64.3z"/>
</svg>
