<?xml version="1.0" encoding="utf-8"?>
<!-- Generator: Adobe Illustrator 18.0.0, SVG Export Plug-In . SVG Version: 6.00 Build 0)  -->
<!DOCTYPE svg PUBLIC "-//W3C//DTD SVG 1.1//EN" "http://www.w3.org/Graphics/SVG/1.1/DTD/svg11.dtd">
<svg version="1.1" id="Layer_1"  x="0px" y="0px" viewBox="0 0 40 30" enable-background="new 0 0 40 30" xml:space="preserve">
<g>
	<g>
		<path fill="#ACABAB" d="M5.7,5.4c-0.2,0-0.3,0.1-0.5,0.2C5.1,5.8,5,5.9,5,6.1c0,0.2,0.1,0.3,0.2,0.5c0.1,0.1,0.3,0.2,0.5,0.2
			c0.2,0,0.3-0.1,0.5-0.2c0.1-0.1,0.2-0.3,0.2-0.5c0-0.2-0.1-0.3-0.2-0.5C6,5.5,5.9,5.4,5.7,5.4z M14.9,5.4c-0.2,0-0.3,0.1-0.5,0.2
			c-0.1,0.1-0.2,0.3-0.2,0.5c0,0.2,0.1,0.3,0.2,0.5c0.1,0.1,0.3,0.2,0.5,0.2s0.3-0.1,0.5-0.2c0.1-0.1,0.2-0.3,0.2-0.5
			c0-0.2-0.1-0.3-0.2-0.5C15.2,5.5,15.1,5.4,14.9,5.4z M33.3,5.4c-0.2,0-0.3,0.1-0.5,0.2c-0.1,0.1-0.2,0.3-0.2,0.5
			c0,0.2,0.1,0.3,0.2,0.5c0.1,0.1,0.3,0.2,0.5,0.2c0.2,0,0.3-0.1,0.5-0.2C33.9,6.5,34,6.3,34,6.1c0-0.2-0.1-0.3-0.2-0.5
			C33.7,5.5,33.5,5.4,33.3,5.4z M24.1,5.4c-0.2,0-0.3,0.1-0.5,0.2c-0.1,0.1-0.2,0.3-0.2,0.5c0,0.2,0.1,0.3,0.2,0.5
			c0.1,0.1,0.3,0.2,0.5,0.2c0.2,0,0.3-0.1,0.5-0.2c0.1-0.1,0.2-0.3,0.2-0.5c0-0.2-0.1-0.3-0.2-0.5C24.5,5.5,24.3,5.4,24.1,5.4z
			 M36.2,0.4H2.8C1.2,0.4,0,1.6,0,3.2v20.7c0,0.4,0.3,0.7,0.7,0.7h1.5V29c0,0.4,0.3,0.7,0.7,0.7h2.9c0.4,0,0.7-0.3,0.7-0.7v-1.6
			h26.1V29c0,0.4,0.3,0.7,0.7,0.7h2.9c0.4,0,0.7-0.3,0.7-0.7v-4.4h1.5c0.4,0,0.7-0.3,0.7-0.7V3.2C39,1.6,37.8,0.4,36.2,0.4z
			 M5.1,28.3H3.5v-3.7h1.6V28.3z M32.6,26H6.4v-1.5h26.1V26z M35.5,28.3h-1.6v-3.7h1.6V28.3z M37.7,23.2H1.3v-5.6h36.4V23.2z
			 M3.6,16.2v-0.8c0-0.1,0.1-0.2,0.2-0.2h31.5c0.1,0,0.2,0.1,0.2,0.2v0.8H3.6z M37.7,16.2h-0.9v-0.8c0-0.8-0.7-1.5-1.5-1.5h-1
			c0.8-0.5,1.6-1.1,2.3-1.8c0.3-0.3,0.3-0.7,0-0.9c-4-4.1-10.6-4.1-14.7,0c-0.3,0.3-0.3,0.7,0,0.9c0.7,0.7,1.5,1.3,2.3,1.8h-9.5
			c0.8-0.5,1.6-1.1,2.3-1.8c0.3-0.3,0.3-0.7,0-0.9c-2-2-4.6-3.1-7.3-3.1s-5.4,1.1-7.3,3.1c-0.3,0.3-0.3,0.7,0,0.9
			c0.7,0.7,1.5,1.3,2.3,1.8h-1c-0.8,0-1.5,0.7-1.5,1.5v0.8H1.3v-13c0-0.8,0.7-1.5,1.5-1.5h33.4c0.8,0,1.5,0.7,1.5,1.5V16.2z
			 M23.3,11.6c3.4-2.9,8.4-2.9,11.8,0C31.7,14.6,26.7,14.6,23.3,11.6z M9.8,13.8c-2.2,0-4.3-0.8-5.9-2.2c1.6-1.4,3.7-2.2,5.9-2.2
			c2.2,0,4.3,0.8,5.9,2.2C14,13.1,12,13.8,9.8,13.8z"/>
	</g>
</g>
</svg>
