<?xml version="1.0" encoding="utf-8"?>
<!-- Generator: Adobe Illustrator 18.0.0, SVG Export Plug-In . SVG Version: 6.00 Build 0)  -->
<!DOCTYPE svg PUBLIC "-//W3C//DTD SVG 1.1//EN" "http://www.w3.org/Graphics/SVG/1.1/DTD/svg11.dtd">
<svg version="1.1" id="Layer_1" xmlns="http://www.w3.org/2000/svg" xmlns:xlink="http://www.w3.org/1999/xlink" x="0px" y="0px"
	 viewBox="0 0 40 40" enable-background="new 0 0 40 40" xml:space="preserve">
<g>
	<g>
		<path fill="#ACABAB" d="M7.5,25.9H12c0.4,0,0.7-0.3,0.7-0.7v-6.5c0-0.4-0.3-0.7-0.7-0.7H7.5c-0.4,0-0.7,0.3-0.7,0.7v6.5
			C6.8,25.6,7.1,25.9,7.5,25.9z M8.1,19.3h3.3v5.2H8.1V19.3z M18.5,25.9h4.6c0.4,0,0.6-0.3,0.6-0.7v-6.5c0-0.4-0.3-0.7-0.6-0.7h-4.6
			c-0.4,0-0.6,0.3-0.6,0.7v6.5C17.9,25.6,18.2,25.9,18.5,25.9z M19.2,19.3h3.2v5.2h-3.2V19.3z M18.5,36.3h4.6c0.4,0,0.6-0.3,0.6-0.7
			v-6.5c0-0.4-0.3-0.7-0.6-0.7h-4.6c-0.4,0-0.6,0.3-0.6,0.7v6.5C17.9,36,18.2,36.3,18.5,36.3z M19.2,29.8h3.2V35h-3.2V29.8z
			 M28.9,25.9h4.5c0.4,0,0.7-0.3,0.7-0.7v-6.5c0-0.4-0.3-0.7-0.7-0.7h-4.5c-0.4,0-0.7,0.3-0.7,0.7v6.5
			C28.3,25.6,28.6,25.9,28.9,25.9z M29.6,19.3h3.3v5.2h-3.3V19.3z M7.5,36.3H12c0.4,0,0.7-0.3,0.7-0.7v-6.5c0-0.4-0.3-0.7-0.7-0.7
			H7.5c-0.4,0-0.7,0.3-0.7,0.7v6.5C6.8,36,7.1,36.3,7.5,36.3z M8.1,29.8h3.3V35H8.1V29.8z M28.9,36.3h4.5c0.4,0,0.7-0.3,0.7-0.7
			v-6.5c0-0.4-0.3-0.7-0.7-0.7h-4.5c-0.4,0-0.7,0.3-0.7,0.7v6.5C28.3,36,28.6,36.3,28.9,36.3z M29.6,29.8h3.3V35h-3.3V29.8z
			 M37.4,38.2V16.1H38c0.4,0,0.7-0.3,0.7-0.7v-3.3c0-0.4-0.3-0.7-0.7-0.7h-0.6V8.9c0-0.4-0.3-0.7-0.7-0.7h-1.3V1.1
			c0-0.4-0.3-0.7-0.6-0.7H6.2c-0.4,0-0.7,0.3-0.7,0.7v7.2H4.2c-0.4,0-0.6,0.3-0.6,0.7v2.6H2.9c-0.4,0-0.6,0.3-0.6,0.7v3.3
			c0,0.4,0.3,0.7,0.6,0.7h0.7v22.1H1v1.3h3.3h32.5H40v-1.3H37.4z M6.8,1.8h27.3v6.5H6.8V1.8z M4.9,9.6h1.3h28.6h1.3v2H4.9V9.6z
			 M36.1,38.2L36.1,38.2H4.9V16.1h31.2V38.2z M4.2,14.8H3.6v-2h0.6h32.5h0.7v2h-0.7H4.2z M19.1,3.3c-0.2-0.2-0.4-0.3-0.7-0.5
			c-0.3-0.1-0.6-0.2-0.9-0.2c-0.3,0-0.6,0.1-0.9,0.2C16.4,3,16.1,3.1,16,3.3c-0.2,0.2-0.3,0.4-0.4,0.7c-0.1,0.3-0.2,0.6-0.2,0.9
			c0,0.3,0.1,0.6,0.2,0.9C15.6,6,15.8,6.2,16,6.4c0.2,0.2,0.4,0.3,0.7,0.5C16.9,7,17.2,7,17.5,7c0.3,0,0.6-0.1,0.9-0.2
			c0.3-0.1,0.5-0.3,0.7-0.5c0.2-0.2,0.3-0.4,0.4-0.7c0.1-0.3,0.2-0.6,0.2-0.9c0-0.3-0.1-0.6-0.2-0.9C19.4,3.8,19.2,3.5,19.1,3.3z
			 M18.8,5.5c-0.1,0.2-0.1,0.3-0.3,0.5s-0.3,0.2-0.4,0.3c-0.2,0.1-0.4,0.1-0.6,0.1c-0.2,0-0.4,0-0.6-0.1c-0.2-0.1-0.3-0.2-0.4-0.3
			c-0.1-0.1-0.2-0.3-0.3-0.5c-0.1-0.2-0.1-0.4-0.1-0.6c0-0.2,0-0.4,0.1-0.6c0.1-0.2,0.2-0.3,0.3-0.5c0.1-0.1,0.3-0.2,0.4-0.3
			c0.2-0.1,0.4-0.1,0.6-0.1c0.2,0,0.4,0,0.6,0.1c0.2,0.1,0.3,0.2,0.4,0.3c0.1,0.1,0.2,0.3,0.3,0.5c0.1,0.2,0.1,0.4,0.1,0.6
			C18.8,5.1,18.8,5.3,18.8,5.5z M13.9,4.6h-2V2.8h-0.8V7H12V5.1h2V7h0.8V2.8h-0.8V4.6z M27.7,2.8h-0.8V7h2.5V6.3h-1.7V2.8z
			 M19.7,3.4H21V7h0.8V3.4H23V2.8h-3.3V3.4z M23.5,7h2.7V6.4h-1.9V5.2h1.5V4.6h-1.5V3.4h1.9V2.8h-2.7V7z"/>
	</g>
</g>
</svg>
