<?xml version="1.0" encoding="utf-8"?>
<!-- Generator: Adobe Illustrator 18.0.0, SVG Export Plug-In . SVG Version: 6.00 Build 0)  -->
<!DOCTYPE svg PUBLIC "-//W3C//DTD SVG 1.1//EN" "http://www.w3.org/Graphics/SVG/1.1/DTD/svg11.dtd">
<svg version="1.1" id="Layer_1" xmlns="http://www.w3.org/2000/svg" xmlns:xlink="http://www.w3.org/1999/xlink" x="0px" y="0px"
	 viewBox="0 0 40 40" enable-background="new 0 0 40 40" xml:space="preserve">
<path fill="#ACABAB" d="M39,20C39,9.3,30.2,0.5,19.5,0.5C8.7,0.5,0,9.3,0,20c0,5.7,2.4,10.8,6.3,14.3l0,0l0.6,0.5
	C7,34.9,7,35,7.1,35c0.3,0.3,0.7,0.5,1,0.8C8.2,35.9,8.3,36,8.4,36c0.4,0.3,0.8,0.5,1.2,0.7c0.1,0.1,0.2,0.1,0.3,0.2
	c0.4,0.2,0.9,0.5,1.3,0.7c0,0,0.1,0,0.1,0c1.5,0.7,3.1,1.2,4.7,1.5c0,0,0.1,0,0.1,0c0.5,0.1,1,0.2,1.6,0.2c0.1,0,0.1,0,0.2,0
	c0.5,0,1.1,0.1,1.6,0.1c0.5,0,1.1,0,1.6-0.1c0.1,0,0.1,0,0.2,0c0.5,0,1-0.1,1.5-0.2c0,0,0.1,0,0.1,0c1.6-0.3,3.2-0.8,4.6-1.5
	c0.1,0,0.1,0,0.2-0.1c0.4-0.2,0.9-0.4,1.3-0.7c0.1-0.1,0.2-0.1,0.3-0.2c0.4-0.2,0.8-0.5,1.1-0.7c0.1-0.1,0.3-0.2,0.4-0.3
	c0.3-0.2,0.6-0.5,0.9-0.7c0.1-0.1,0.1-0.1,0.2-0.2l0.6-0.5l0,0C36.5,30.8,39,25.7,39,20z M1.4,20c0-10,8.1-18.1,18.1-18.1
	S37.5,10,37.5,20c0,5.4-2.4,10.2-6.1,13.5c-0.2-0.1-0.4-0.3-0.6-0.4l-6-3c-0.5-0.3-0.9-0.8-0.9-1.4v-2.1c0.1-0.2,0.3-0.4,0.4-0.6
	c0.8-1.1,1.4-2.3,1.9-3.6c0.9-0.4,1.5-1.3,1.5-2.3v-2.5c0-0.6-0.2-1.2-0.6-1.7v-3.3c0-0.4,0.2-2.4-1.3-4.2c-1.3-1.5-3.4-2.2-6.3-2.2
	c-2.9,0-5,0.8-6.3,2.2c-1.5,1.7-1.4,3.8-1.3,4.2v3.3c-0.4,0.5-0.6,1.1-0.6,1.7v2.5c0,0.8,0.3,1.5,0.9,2c0.6,2.2,1.8,3.9,2.2,4.5v2
	c0,0.6-0.3,1.1-0.8,1.4L8,33.1c-0.2,0.1-0.4,0.2-0.5,0.3C3.7,30.1,1.4,25.3,1.4,20z M30.1,34.6c-0.2,0.2-0.5,0.4-0.8,0.5
	c-0.1,0.1-0.2,0.2-0.4,0.2c-0.3,0.2-0.7,0.4-1,0.6c-0.1,0-0.2,0.1-0.2,0.1c-0.8,0.4-1.6,0.8-2.5,1c0,0-0.1,0-0.1,0
	c-0.4,0.1-0.9,0.3-1.3,0.4c0,0,0,0,0,0c-0.5,0.1-0.9,0.2-1.4,0.3c0,0,0,0,0,0c-0.4,0.1-0.9,0.1-1.3,0.2c-0.1,0-0.2,0-0.2,0
	c-0.4,0-0.9,0.1-1.3,0.1c-0.4,0-0.9,0-1.3-0.1c-0.1,0-0.2,0-0.2,0c-0.4,0-0.9-0.1-1.3-0.2c0,0,0,0-0.1,0c-0.9-0.2-1.9-0.4-2.8-0.7
	c0,0-0.1,0-0.1,0c-0.4-0.2-0.9-0.3-1.3-0.5c0,0,0,0,0,0c-0.4-0.2-0.8-0.4-1.2-0.6C11.1,36,11,36,11,35.9c-0.4-0.2-0.7-0.4-1.1-0.6
	c-0.1-0.1-0.2-0.1-0.3-0.2c-0.3-0.2-0.6-0.4-0.9-0.7c0,0-0.1,0-0.1-0.1c0,0,0,0,0.1,0l5.6-3.1c1-0.5,1.6-1.5,1.6-2.6l0-2.6l-0.2-0.2
	c0,0-1.5-1.9-2.1-4.4l-0.1-0.3l-0.2-0.2c-0.3-0.2-0.5-0.6-0.5-1v-2.5c0-0.3,0.1-0.6,0.4-0.9l0.2-0.2v-3.9l0-0.1c0,0-0.2-1.7,1-3.1
	c1-1.2,2.8-1.8,5.2-1.8c2.4,0,4.2,0.6,5.2,1.7c1.2,1.4,1,3.1,1,3.1l0,4l0.2,0.2c0.3,0.2,0.4,0.5,0.4,0.9v2.5c0,0.5-0.3,1-0.8,1.1
	l-0.4,0.1L25,21.7c-0.4,1.3-1,2.5-1.8,3.6c-0.2,0.3-0.4,0.5-0.5,0.7l-0.2,0.2v2.6c0,1.1,0.6,2.2,1.7,2.7l6,3c0,0,0.1,0,0.1,0.1
	C30.2,34.5,30.1,34.6,30.1,34.6z"/>
</svg>
