<?xml version="1.0" encoding="utf-8"?>
<!-- Generator: Adobe Illustrator 18.0.0, SVG Export Plug-In . SVG Version: 6.00 Build 0)  -->
<!DOCTYPE svg PUBLIC "-//W3C//DTD SVG 1.1//EN" "http://www.w3.org/Graphics/SVG/1.1/DTD/svg11.dtd">
<svg version="1.1" id="Layer_1" xmlns="http://www.w3.org/2000/svg" xmlns:xlink="http://www.w3.org/1999/xlink" x="0px" y="0px"
	 viewBox="0 0 40 40" enable-background="new 0 0 40 40" xml:space="preserve">
<g>
	<g>
		<path fill="#ACABAB" d="M37.9,17.9h-4.4c-0.4,0-0.6,0.3-0.6,0.6v3.7H29v-8.7h1.3c0.4,0,0.6-0.3,0.6-0.6V5.4c0-0.3-0.3-0.6-0.6-0.6
			h-3.8c-0.4,0-0.6,0.3-0.6,0.6v2.5h-1.3V5.4c0-0.3-0.3-0.6-0.6-0.6h-3.2c-0.4,0-0.6,0.3-0.6,0.6v2.5h-1.3V5.4
			c0-0.3-0.3-0.6-0.6-0.6H15c-0.4,0-0.6,0.3-0.6,0.6v2.5h-1.3V5.4c0-0.3-0.3-0.6-0.6-0.6H8.7c-0.4,0-0.6,0.3-0.6,0.6v7.5
			c0,0.3,0.3,0.6,0.6,0.6H10v8.7H6.1v-3.7c0-0.3-0.3-0.6-0.6-0.6H1.1c-0.4,0-0.6,0.3-0.6,0.6v18.1c0,0.3,0.3,0.6,0.6,0.6h9.5H15h8.9
			h4.4c0,0,0,0,0,0c0,0,0,0,0,0h9.5c0.4,0,0.6-0.3,0.6-0.6V18.5C38.6,18.2,38.3,17.9,37.9,17.9z M10,36H1.7V19.1h3.2v3.7
			c0,0.3,0.3,0.6,0.6,0.6H10V36z M23.3,36L23.3,36h-7.6v-7.5c0-1.7,1.4-3.1,3.2-3.1h1.3c1.7,0,3.2,1.4,3.2,3.1V36z M27.7,36h-3.2
			v-7.5c0-2.4-2-4.4-4.4-4.4h-1.3c-2.4,0-4.4,2-4.4,4.4V36h-3.2V22.9v-9.3h16.5V36z M28.4,12.3H10.6H9.3V6h2.5v2.5
			c0,0.3,0.3,0.6,0.6,0.6H15c0.4,0,0.6-0.3,0.6-0.6V6h1.9v2.5c0,0.3,0.3,0.6,0.6,0.6h2.5c0.4,0,0.6-0.3,0.6-0.6V6h1.9v2.5
			c0,0.3,0.3,0.6,0.6,0.6h2.5c0.4,0,0.6-0.3,0.6-0.6V6h2.5v6.2H28.4z M37.3,36H29V23.5h4.4c0.4,0,0.6-0.3,0.6-0.6v-3.7h3.2V36z
			 M3,28.5v3.7c0,0.3,0.3,0.6,0.6,0.6h4.4c0.4,0,0.6-0.3,0.6-0.6v-3.7c0-1.4-1.1-2.5-2.5-2.5H5.5C4.1,26,3,27.1,3,28.5z M4.2,28.5
			c0-0.7,0.6-1.2,1.3-1.2h0.6c0.7,0,1.3,0.6,1.3,1.2v3.1h0H4.2V28.5z M32.8,26c-1.4,0-2.5,1.1-2.5,2.5v3.7c0,0.3,0.3,0.6,0.6,0.6
			h4.4c0.4,0,0.6-0.3,0.6-0.6v-3.7c0-1.4-1.1-2.5-2.5-2.5H32.8z M34.7,28.5v3.1h0h-3.2v-3.1c0-0.7,0.6-1.2,1.3-1.2h0.6
			C34.1,27.2,34.7,27.8,34.7,28.5z M21.4,21.6h4.4c0.4,0,0.6-0.3,0.6-0.6v-3.7c0-1.4-1.1-2.5-2.5-2.5h-0.6c-1.4,0-2.5,1.1-2.5,2.5
			V21C20.7,21.3,21,21.6,21.4,21.6z M22,17.3c0-0.7,0.6-1.2,1.3-1.2h0.6c0.7,0,1.3,0.6,1.3,1.2v3.1h0H22V17.3z M13.1,21.6h4.4
			c0.4,0,0.6-0.3,0.6-0.6v-3.7c0-1.4-1.1-2.5-2.5-2.5H15c-1.4,0-2.5,1.1-2.5,2.5V21C12.5,21.3,12.8,21.6,13.1,21.6z M13.8,17.3
			c0-0.7,0.6-1.2,1.3-1.2h0.6c0.7,0,1.3,0.6,1.3,1.2v3.1h0h-3.2V17.3z"/>
	</g>
</g>
</svg>
